SplineFontDB: 3.2
FontName: West_england
FullName: West_england Regular
FamilyName: West_england
Weight: Book
Copyright: Copyright kevin richey 2010
Version: 1.0
ItalicAngle: 0
UnderlinePosition: 77
UnderlineWidth: 51
Ascent: 819
Descent: 205
InvalidEm: 0
sfntRevision: 0x00010000
LayerCount: 3
Layer: 0 1 "Back" 1
Layer: 1 1 "Fore" 0
Layer: 2 0 "Back 2" 1
XUID: [1021 711 -154106394 387703]
StyleMap: 0x0040
FSType: 4
OS2Version: 2
OS2_WeightWidthSlopeOnly: 0
OS2_UseTypoMetrics: 0
CreationTime: 1268388200
ModificationTime: 1655030067
PfmFamily: 81
TTFWeight: 400
TTFWidth: 5
LineGap: 0
VLineGap: 0
Panose: 0 0 4 0 0 0 0 0 0 0
OS2TypoAscent: 576
OS2TypoAOffset: 0
OS2TypoDescent: -192
OS2TypoDOffset: 0
OS2TypoLinegap: 0
OS2WinAscent: 576
OS2WinAOffset: 0
OS2WinDescent: 192
OS2WinDOffset: 0
HheadAscent: 576
HheadAOffset: 0
HheadDescent: -192
HheadDOffset: 0
OS2SubXSize: 512
OS2SubYSize: 512
OS2SubXOff: 0
OS2SubYOff: -96
OS2SupXSize: 512
OS2SupYSize: 512
OS2SupXOff: 0
OS2SupYOff: 512
OS2StrikeYSize: 51
OS2StrikeYPos: 204
OS2CapHeight: 512
OS2XHeight: 384
OS2Vendor: 'FSTR'
OS2CodePages: 00000001.00000000
OS2UnicodeRanges: 00000001.00000000.00000000.00000000
DEI: 91125
ShortTable: maxp 16
  1
  0
  98
  64
  9
  0
  0
  2
  0
  0
  0
  0
  0
  0
  0
  0
EndShort
LangName: 1033 "" "" "Regular" "FontStruct West_england" "" "Version 1.0" "" "FontStruct is a trademark of FSI FontShop International GmbH" "http://fontstruct.fontshop.com" "kevin richey" "" "http://www.fontshop.com" "http://fontstruct.fontshop.com/fontstructions/show/276078" "Creative Commons Attribution Share Alike" "http://creativecommons.org/licenses/by-sa/3.0/" "" "" "" "" "Five big quacking zephyrs jolt my wax bed"
Encoding: UnicodeBmp
UnicodeInterp: none
NameList: AGL For New Fonts
DisplaySize: -48
AntiAlias: 1
FitToEm: 0
WinInfo: 171 19 14
Grid
-1024 579 m 0
 2048 579 l 1024
513 1331 m 0
 513 -717 l 1024
127 1331 m 0
 127 -717 l 1024
256 1331 m 0
 256 -717 l 1024
EndSplineSet
BeginChars: 65537 114

StartChar: .notdef
Encoding: 65536 -1 0
Width: 640
GlyphClass: 1
Flags: W
LayerCount: 3
Fore
SplineSet
288 81 m 1,0,-1
 288 173 l 1,1,-1
 196 173 l 1,2,-1
 196 81 l 1,3,-1
 288 81 l 1,0,-1
379 188 m 1,4,-1
 379 280 l 1,5,-1
 196 280 l 1,6,-1
 196 188 l 1,7,-1
 379 188 l 1,4,-1
288 295 m 1,8,-1
 288 387 l 1,9,-1
 196 387 l 1,10,-1
 196 295 l 1,11,-1
 288 295 l 1,8,-1
379 402 m 1,12,-1
 379 493 l 1,13,-1
 288 493 l 2,14,15
 249 493 249 493 223 467 c 0,16,17
 196 440 196 440 196 402 c 1,18,-1
 379 402 l 1,12,-1
0 0 m 1,19,-1
 0 576 l 1,20,-1
 576 576 l 1,21,-1
 576 0 l 1,22,-1
 0 0 l 1,19,-1
EndSplineSet
Validated: 1
EndChar

StartChar: exclam
Encoding: 33 33 4
Width: 448
GlyphClass: 1
Flags: W
LayerCount: 3
Fore
SplineSet
256 0 m 1,0,-1
 256 64 l 1,1,-1
 384 64 l 1,2,-1
 384 0 l 1,3,-1
 256 0 l 1,0,-1
256 128 m 1,4,-1
 256 512 l 1,5,-1
 384 512 l 1,6,-1
 384 128 l 1,7,-1
 256 128 l 1,4,-1
EndSplineSet
Validated: 1
EndChar

StartChar: quotedbl
Encoding: 34 34 5
Width: 576
GlyphClass: 1
Flags: W
LayerCount: 3
Fore
SplineSet
192 320 m 1,0,-1
 192 384 l 1,1,-1
 128 384 l 1,2,-1
 128 512 l 1,3,-1
 256 512 l 1,4,-1
 256 320 l 1,5,-1
 192 320 l 1,0,-1
448 320 m 1,6,-1
 448 384 l 1,7,-1
 384 384 l 1,8,-1
 384 512 l 1,9,-1
 512 512 l 1,10,-1
 512 320 l 1,11,-1
 448 320 l 1,6,-1
EndSplineSet
Validated: 1
EndChar

StartChar: numbersign
Encoding: 35 35 6
Width: 640
GlyphClass: 1
Flags: W
LayerCount: 3
Fore
SplineSet
448 192 m 1,0,-1
 448 320 l 1,1,-1
 256 320 l 1,2,-1
 256 192 l 1,3,-1
 448 192 l 1,0,-1
192 0 m 1,4,-1
 192 128 l 1,5,-1
 64 128 l 1,6,-1
 64 192 l 1,7,-1
 192 192 l 1,8,-1
 192 320 l 1,9,-1
 64 320 l 1,10,-1
 64 384 l 1,11,-1
 192 384 l 1,12,-1
 192 512 l 1,13,-1
 256 512 l 1,14,-1
 256 384 l 1,15,-1
 448 384 l 1,16,-1
 448 512 l 1,17,-1
 512 512 l 1,18,-1
 512 384 l 1,19,-1
 576 384 l 1,20,-1
 576 320 l 1,21,-1
 512 320 l 1,22,-1
 512 192 l 1,23,-1
 576 192 l 1,24,-1
 576 128 l 1,25,-1
 512 128 l 1,26,-1
 512 0 l 1,27,-1
 448 0 l 1,28,-1
 448 128 l 1,29,-1
 256 128 l 1,30,-1
 256 0 l 1,31,-1
 192 0 l 1,4,-1
EndSplineSet
Validated: 1
EndChar

StartChar: dollar
Encoding: 36 36 7
Width: 576
GlyphClass: 1
Flags: W
LayerCount: 3
Fore
SplineSet
256 -64 m 1,0,-1
 256 64 l 1,1,-1
 64 64 l 1,2,-1
 64 128 l 1,3,-1
 384 128 l 1,4,-1
 384 192 l 1,5,-1
 128 192 l 1,6,-1
 128 256 l 1,7,-1
 64 256 l 1,8,-1
 64 320 l 1,9,-1
 128 320 l 1,10,-1
 128 384 l 1,11,-1
 256 384 l 1,12,-1
 256 512 l 1,13,-1
 320 512 l 1,14,-1
 320 384 l 1,15,-1
 512 384 l 1,16,-1
 512 320 l 1,17,-1
 192 320 l 1,18,-1
 192 256 l 1,19,-1
 448 256 l 1,20,-1
 448 192 l 1,21,-1
 512 192 l 1,22,-1
 512 128 l 1,23,-1
 448 128 l 1,24,-1
 448 64 l 1,25,-1
 320 64 l 1,26,-1
 320 -64 l 1,27,-1
 256 -64 l 1,0,-1
EndSplineSet
Validated: 1
EndChar

StartChar: percent
Encoding: 37 37 8
Width: 704
GlyphClass: 1
Flags: W
LayerCount: 3
Fore
SplineSet
448 0 m 1,0,-1
 448 64 l 1,1,-1
 576 64 l 1,2,-1
 576 0 l 1,3,-1
 448 0 l 1,0,-1
384 64 m 1,4,-1
 384 128 l 1,5,-1
 448 128 l 1,6,-1
 448 64 l 1,7,-1
 384 64 l 1,4,-1
576 64 m 1,8,-1
 576 128 l 1,9,-1
 640 128 l 1,10,-1
 640 64 l 1,11,-1
 576 64 l 1,8,-1
448 128 m 1,12,-1
 448 192 l 1,13,-1
 576 192 l 1,14,-1
 576 128 l 1,15,-1
 448 128 l 1,12,-1
128 320 m 1,16,-1
 128 384 l 1,17,-1
 256 384 l 1,18,-1
 256 320 l 1,19,-1
 128 320 l 1,16,-1
64 384 m 1,20,-1
 64 448 l 1,21,-1
 128 448 l 1,22,-1
 128 384 l 1,23,-1
 64 384 l 1,20,-1
256 384 m 1,24,-1
 256 448 l 1,25,-1
 320 448 l 1,26,-1
 320 384 l 1,27,-1
 256 384 l 1,24,-1
128 448 m 1,28,-1
 128 512 l 1,29,-1
 256 512 l 1,30,-1
 256 448 l 1,31,-1
 128 448 l 1,28,-1
64 0 m 1,32,-1
 64 64 l 1,33,-1
 128 64 l 1,34,-1
 128 128 l 1,35,-1
 192 128 l 1,36,-1
 192 192 l 1,37,-1
 256 192 l 1,38,-1
 256 256 l 1,39,-1
 320 256 l 1,40,-1
 320 320 l 1,41,-1
 384 320 l 1,42,-1
 384 384 l 1,43,-1
 448 384 l 1,44,-1
 448 448 l 1,45,-1
 512 448 l 1,46,-1
 512 512 l 1,47,-1
 640 512 l 1,48,-1
 640 448 l 1,49,-1
 576 448 l 1,50,-1
 576 384 l 1,51,-1
 512 384 l 1,52,-1
 512 320 l 1,53,-1
 448 320 l 1,54,-1
 448 256 l 1,55,-1
 384 256 l 1,56,-1
 384 192 l 1,57,-1
 320 192 l 1,58,-1
 320 128 l 1,59,-1
 256 128 l 1,60,-1
 256 64 l 1,61,-1
 192 64 l 1,62,-1
 192 0 l 1,63,-1
 64 0 l 1,32,-1
EndSplineSet
Validated: 5
EndChar

StartChar: ampersand
Encoding: 38 38 9
Width: 640
GlyphClass: 1
Flags: W
LayerCount: 3
Fore
SplineSet
512 0 m 1,0,-1
 512 64 l 1,1,-1
 576 64 l 1,2,-1
 576 0 l 1,3,-1
 512 0 l 1,0,-1
128 0 m 1,4,-1
 128 64 l 1,5,-1
 64 64 l 1,6,-1
 64 192 l 1,7,-1
 128 192 l 1,8,-1
 128 256 l 1,9,-1
 192 256 l 1,10,-1
 192 64 l 1,11,-1
 384 64 l 1,12,-1
 384 128 l 1,13,-1
 320 128 l 1,14,-1
 320 192 l 1,15,-1
 256 192 l 1,16,-1
 256 256 l 1,17,-1
 192 256 l 1,18,-1
 192 320 l 1,19,-1
 128 320 l 1,20,-1
 128 448 l 1,21,-1
 192 448 l 1,22,-1
 192 512 l 1,23,-1
 448 512 l 1,24,-1
 448 448 l 1,25,-1
 512 448 l 1,26,-1
 512 320 l 1,27,-1
 448 320 l 1,28,-1
 448 256 l 1,29,-1
 384 256 l 1,30,-1
 384 448 l 1,31,-1
 256 448 l 1,32,-1
 256 320 l 1,33,-1
 320 320 l 1,34,-1
 320 256 l 1,35,-1
 384 256 l 1,36,-1
 384 192 l 1,37,-1
 448 192 l 1,38,-1
 448 256 l 1,39,-1
 576 256 l 1,40,-1
 576 192 l 1,41,-1
 512 192 l 1,42,-1
 512 64 l 1,43,-1
 448 64 l 1,44,-1
 448 0 l 1,45,-1
 128 0 l 1,4,-1
EndSplineSet
Validated: 5
EndChar

StartChar: quotesingle
Encoding: 39 39 10
Width: 704
GlyphClass: 1
Flags: W
LayerCount: 3
Fore
SplineSet
256 420 m 1,0,-1
 256 579 l 1,1,-1
 337 579 l 1,2,-1
 337 420 l 1,3,-1
 256 420 l 1,0,-1
EndSplineSet
Validated: 1
EndChar

StartChar: parenleft
Encoding: 40 40 11
Width: 576
GlyphClass: 1
Flags: W
LayerCount: 3
Fore
SplineSet
384 -64 m 1,0,-1
 384 0 l 1,1,-1
 320 0 l 1,2,-1
 320 448 l 1,3,-1
 384 448 l 1,4,-1
 384 512 l 1,5,-1
 512 512 l 1,6,-1
 512 448 l 1,7,-1
 448 448 l 1,8,-1
 448 384 l 1,9,-1
 384 384 l 1,10,-1
 384 64 l 1,11,-1
 448 64 l 1,12,-1
 448 0 l 1,13,-1
 512 0 l 1,14,-1
 512 -64 l 1,15,-1
 384 -64 l 1,0,-1
EndSplineSet
Validated: 1
EndChar

StartChar: parenright
Encoding: 41 41 12
Width: 384
GlyphClass: 1
Flags: W
LayerCount: 3
Fore
SplineSet
128 -64 m 1,0,-1
 128 0 l 1,1,-1
 192 0 l 1,2,-1
 192 64 l 1,3,-1
 256 64 l 1,4,-1
 256 384 l 1,5,-1
 192 384 l 1,6,-1
 192 448 l 1,7,-1
 128 448 l 1,8,-1
 128 512 l 1,9,-1
 256 512 l 1,10,-1
 256 448 l 1,11,-1
 320 448 l 1,12,-1
 320 0 l 1,13,-1
 256 0 l 1,14,-1
 256 -64 l 1,15,-1
 128 -64 l 1,0,-1
EndSplineSet
Validated: 1
EndChar

StartChar: asterisk
Encoding: 42 42 13
Width: 640
GlyphClass: 1
Flags: W
LayerCount: 3
Fore
SplineSet
128 64 m 1,0,-1
 128 128 l 1,1,-1
 192 128 l 1,2,-1
 192 192 l 1,3,-1
 64 192 l 1,4,-1
 64 256 l 1,5,-1
 192 256 l 1,6,-1
 192 320 l 1,7,-1
 128 320 l 1,8,-1
 128 384 l 1,9,-1
 256 384 l 1,10,-1
 256 320 l 1,11,-1
 384 320 l 1,12,-1
 384 384 l 1,13,-1
 512 384 l 1,14,-1
 512 320 l 1,15,-1
 448 320 l 1,16,-1
 448 256 l 1,17,-1
 576 256 l 1,18,-1
 576 192 l 1,19,-1
 448 192 l 1,20,-1
 448 128 l 1,21,-1
 512 128 l 1,22,-1
 512 64 l 1,23,-1
 384 64 l 1,24,-1
 384 128 l 1,25,-1
 256 128 l 1,26,-1
 256 64 l 1,27,-1
 128 64 l 1,0,-1
EndSplineSet
Validated: 1
EndChar

StartChar: plus
Encoding: 43 43 14
Width: 640
GlyphClass: 1
Flags: W
LayerCount: 3
Fore
SplineSet
256 64 m 1,0,-1
 256 192 l 1,1,-1
 64 192 l 1,2,-1
 64 256 l 1,3,-1
 256 256 l 1,4,-1
 256 384 l 1,5,-1
 384 384 l 1,6,-1
 384 256 l 1,7,-1
 576 256 l 1,8,-1
 576 192 l 1,9,-1
 384 192 l 1,10,-1
 384 64 l 1,11,-1
 256 64 l 1,0,-1
EndSplineSet
Validated: 1
EndChar

StartChar: comma
Encoding: 44 44 15
Width: 384
GlyphClass: 1
Flags: W
LayerCount: 3
Fore
SplineSet
128 -192 m 5,0,-1
 128 -64 l 5,1,-1
 192 -64 l 5,2,-1
 192 128 l 5,3,-1
 320 128 l 5,4,-1
 320 -64 l 5,5,-1
 256 -64 l 5,6,-1
 256 -192 l 5,7,-1
 128 -192 l 5,0,-1
EndSplineSet
Validated: 1
EndChar

StartChar: hyphen
Encoding: 45 45 16
Width: 640
GlyphClass: 1
Flags: W
LayerCount: 3
Fore
SplineSet
64 192 m 1,0,-1
 64 256 l 1,1,-1
 576 256 l 1,2,-1
 576 192 l 1,3,-1
 64 192 l 1,0,-1
EndSplineSet
Validated: 1
EndChar

StartChar: period
Encoding: 46 46 17
Width: 384
GlyphClass: 1
Flags: W
LayerCount: 3
Fore
SplineSet
192 0 m 1,0,-1
 192 128 l 1,1,-1
 320 128 l 1,2,-1
 320 0 l 1,3,-1
 192 0 l 1,0,-1
EndSplineSet
Validated: 1
EndChar

StartChar: slash
Encoding: 47 47 18
Width: 704
GlyphClass: 1
Flags: W
LayerCount: 3
Fore
SplineSet
0 -64 m 1,0,-1
 0 0 l 1,1,-1
 64 0 l 1,2,-1
 64 64 l 1,3,-1
 128 64 l 1,4,-1
 128 128 l 1,5,-1
 192 128 l 1,6,-1
 192 192 l 1,7,-1
 256 192 l 1,8,-1
 256 256 l 1,9,-1
 320 256 l 1,10,-1
 320 320 l 1,11,-1
 384 320 l 1,12,-1
 384 384 l 1,13,-1
 448 384 l 1,14,-1
 448 448 l 1,15,-1
 512 448 l 1,16,-1
 512 512 l 1,17,-1
 640 512 l 1,18,-1
 640 448 l 1,19,-1
 576 448 l 1,20,-1
 576 384 l 1,21,-1
 512 384 l 1,22,-1
 512 320 l 1,23,-1
 448 320 l 1,24,-1
 448 256 l 1,25,-1
 384 256 l 1,26,-1
 384 192 l 1,27,-1
 320 192 l 1,28,-1
 320 128 l 1,29,-1
 256 128 l 1,30,-1
 256 64 l 1,31,-1
 192 64 l 1,32,-1
 192 0 l 1,33,-1
 128 0 l 1,34,-1
 128 -64 l 1,35,-1
 0 -64 l 1,0,-1
EndSplineSet
Validated: 1
EndChar

StartChar: zero
Encoding: 48 48 19
Width: 640
GlyphClass: 1
Flags: W
LayerCount: 3
Fore
SplineSet
256 192 m 1,0,-1
 256 256 l 1,1,-1
 320 256 l 1,2,-1
 320 192 l 1,3,-1
 256 192 l 1,0,-1
320 256 m 1,4,-1
 320 320 l 1,5,-1
 384 320 l 1,6,-1
 384 256 l 1,7,-1
 320 256 l 1,4,-1
448 64 m 1,8,-1
 448 320 l 1,9,-1
 384 320 l 1,10,-1
 384 384 l 1,11,-1
 448 384 l 1,12,-1
 448 448 l 1,13,-1
 192 448 l 1,14,-1
 192 192 l 1,15,-1
 256 192 l 1,16,-1
 256 128 l 1,17,-1
 192 128 l 1,18,-1
 192 64 l 1,19,-1
 448 64 l 1,8,-1
128 0 m 1,20,-1
 128 64 l 1,21,-1
 64 64 l 1,22,-1
 64 448 l 1,23,-1
 128 448 l 1,24,-1
 128 512 l 1,25,-1
 512 512 l 1,26,-1
 512 448 l 1,27,-1
 576 448 l 1,28,-1
 576 64 l 1,29,-1
 512 64 l 1,30,-1
 512 0 l 1,31,-1
 128 0 l 1,20,-1
EndSplineSet
Validated: 5
EndChar

StartChar: one
Encoding: 49 49 20
Width: 640
GlyphClass: 1
Flags: W
LayerCount: 3
Fore
SplineSet
64 0 m 1,0,-1
 64 64 l 1,1,-1
 256 64 l 1,2,-1
 256 384 l 1,3,-1
 128 384 l 1,4,-1
 128 448 l 1,5,-1
 256 448 l 1,6,-1
 256 512 l 1,7,-1
 384 512 l 1,8,-1
 384 64 l 1,9,-1
 576 64 l 1,10,-1
 576 0 l 1,11,-1
 64 0 l 1,0,-1
EndSplineSet
Validated: 1
EndChar

StartChar: two
Encoding: 50 50 21
Width: 640
GlyphClass: 1
Flags: W
LayerCount: 3
Fore
SplineSet
64 0 m 1,0,-1
 64 128 l 1,1,-1
 128 128 l 1,2,-1
 128 192 l 1,3,-1
 256 192 l 1,4,-1
 256 256 l 1,5,-1
 320 256 l 1,6,-1
 320 320 l 1,7,-1
 448 320 l 1,8,-1
 448 448 l 1,9,-1
 192 448 l 1,10,-1
 192 384 l 1,11,-1
 64 384 l 1,12,-1
 64 448 l 1,13,-1
 128 448 l 1,14,-1
 128 512 l 1,15,-1
 512 512 l 1,16,-1
 512 448 l 1,17,-1
 576 448 l 1,18,-1
 576 320 l 1,19,-1
 512 320 l 1,20,-1
 512 256 l 1,21,-1
 384 256 l 1,22,-1
 384 192 l 1,23,-1
 320 192 l 1,24,-1
 320 128 l 1,25,-1
 192 128 l 1,26,-1
 192 64 l 1,27,-1
 576 64 l 1,28,-1
 576 0 l 1,29,-1
 64 0 l 1,0,-1
EndSplineSet
Validated: 1
EndChar

StartChar: three
Encoding: 51 51 22
Width: 640
GlyphClass: 1
Flags: W
LayerCount: 3
Fore
SplineSet
128 0 m 1,0,-1
 128 64 l 1,1,-1
 64 64 l 1,2,-1
 64 128 l 1,3,-1
 192 128 l 1,4,-1
 192 64 l 1,5,-1
 448 64 l 1,6,-1
 448 256 l 1,7,-1
 256 256 l 1,8,-1
 256 320 l 1,9,-1
 448 320 l 1,10,-1
 448 448 l 1,11,-1
 192 448 l 1,12,-1
 192 384 l 1,13,-1
 64 384 l 1,14,-1
 64 448 l 1,15,-1
 128 448 l 1,16,-1
 128 512 l 1,17,-1
 512 512 l 1,18,-1
 512 448 l 1,19,-1
 576 448 l 1,20,-1
 576 320 l 1,21,-1
 512 320 l 1,22,-1
 512 256 l 1,23,-1
 576 256 l 1,24,-1
 576 64 l 1,25,-1
 512 64 l 1,26,-1
 512 0 l 1,27,-1
 128 0 l 1,0,-1
EndSplineSet
Validated: 1
EndChar

StartChar: four
Encoding: 52 52 23
Width: 704
GlyphClass: 1
Flags: W
LayerCount: 3
Fore
SplineSet
384 192 m 1,0,-1
 384 384 l 1,1,-1
 320 384 l 1,2,-1
 320 320 l 1,3,-1
 256 320 l 1,4,-1
 256 256 l 1,5,-1
 192 256 l 1,6,-1
 192 192 l 1,7,-1
 384 192 l 1,0,-1
384 0 m 1,8,-1
 384 128 l 1,9,-1
 64 128 l 1,10,-1
 64 256 l 1,11,-1
 128 256 l 1,12,-1
 128 320 l 1,13,-1
 192 320 l 1,14,-1
 192 384 l 1,15,-1
 256 384 l 1,16,-1
 256 448 l 1,17,-1
 320 448 l 1,18,-1
 320 512 l 1,19,-1
 512 512 l 1,20,-1
 512 192 l 1,21,-1
 640 192 l 1,22,-1
 640 128 l 1,23,-1
 512 128 l 1,24,-1
 512 0 l 1,25,-1
 384 0 l 1,8,-1
EndSplineSet
Validated: 1
EndChar

StartChar: five
Encoding: 53 53 24
Width: 640
GlyphClass: 1
Flags: W
LayerCount: 3
Fore
SplineSet
128 0 m 1,0,-1
 128 64 l 1,1,-1
 64 64 l 1,2,-1
 64 128 l 1,3,-1
 192 128 l 1,4,-1
 192 64 l 1,5,-1
 448 64 l 1,6,-1
 448 256 l 1,7,-1
 64 256 l 1,8,-1
 64 512 l 1,9,-1
 576 512 l 1,10,-1
 576 448 l 1,11,-1
 192 448 l 1,12,-1
 192 320 l 1,13,-1
 512 320 l 1,14,-1
 512 256 l 1,15,-1
 576 256 l 1,16,-1
 576 64 l 1,17,-1
 512 64 l 1,18,-1
 512 0 l 1,19,-1
 128 0 l 1,0,-1
EndSplineSet
Validated: 1
EndChar

StartChar: six
Encoding: 54 54 25
Width: 640
GlyphClass: 1
Flags: W
LayerCount: 3
Fore
SplineSet
448 64 m 1,0,-1
 448 256 l 1,1,-1
 192 256 l 1,2,-1
 192 64 l 1,3,-1
 448 64 l 1,0,-1
128 0 m 1,4,-1
 128 64 l 1,5,-1
 64 64 l 1,6,-1
 64 320 l 1,7,-1
 128 320 l 1,8,-1
 128 384 l 1,9,-1
 192 384 l 1,10,-1
 192 448 l 1,11,-1
 256 448 l 1,12,-1
 256 512 l 1,13,-1
 512 512 l 1,14,-1
 512 448 l 1,15,-1
 320 448 l 1,16,-1
 320 384 l 1,17,-1
 256 384 l 1,18,-1
 256 320 l 1,19,-1
 512 320 l 1,20,-1
 512 256 l 1,21,-1
 576 256 l 1,22,-1
 576 64 l 1,23,-1
 512 64 l 1,24,-1
 512 0 l 1,25,-1
 128 0 l 1,4,-1
EndSplineSet
Validated: 1
EndChar

StartChar: seven
Encoding: 55 55 26
Width: 640
GlyphClass: 1
Flags: W
LayerCount: 3
Fore
SplineSet
192 0 m 1,0,-1
 192 128 l 1,1,-1
 256 128 l 1,2,-1
 256 192 l 1,3,-1
 320 192 l 1,4,-1
 320 256 l 1,5,-1
 384 256 l 1,6,-1
 384 320 l 1,7,-1
 448 320 l 1,8,-1
 448 448 l 1,9,-1
 64 448 l 1,10,-1
 64 512 l 1,11,-1
 576 512 l 1,12,-1
 576 320 l 1,13,-1
 512 320 l 1,14,-1
 512 256 l 1,15,-1
 448 256 l 1,16,-1
 448 192 l 1,17,-1
 384 192 l 1,18,-1
 384 128 l 1,19,-1
 320 128 l 1,20,-1
 320 0 l 1,21,-1
 192 0 l 1,0,-1
EndSplineSet
Validated: 1
EndChar

StartChar: eight
Encoding: 56 56 27
Width: 640
GlyphClass: 1
Flags: W
LayerCount: 3
Fore
SplineSet
448 64 m 1,0,-1
 448 256 l 1,1,-1
 192 256 l 1,2,-1
 192 64 l 1,3,-1
 448 64 l 1,0,-1
448 320 m 1,4,-1
 448 448 l 1,5,-1
 192 448 l 1,6,-1
 192 320 l 1,7,-1
 448 320 l 1,4,-1
128 0 m 1,8,-1
 128 64 l 1,9,-1
 64 64 l 1,10,-1
 64 256 l 1,11,-1
 128 256 l 1,12,-1
 128 320 l 1,13,-1
 64 320 l 1,14,-1
 64 448 l 1,15,-1
 128 448 l 1,16,-1
 128 512 l 1,17,-1
 512 512 l 1,18,-1
 512 448 l 1,19,-1
 576 448 l 1,20,-1
 576 320 l 1,21,-1
 512 320 l 1,22,-1
 512 256 l 1,23,-1
 576 256 l 1,24,-1
 576 64 l 1,25,-1
 512 64 l 1,26,-1
 512 0 l 1,27,-1
 128 0 l 1,8,-1
EndSplineSet
Validated: 1
EndChar

StartChar: nine
Encoding: 57 57 28
Width: 640
GlyphClass: 1
Flags: W
LayerCount: 3
Fore
SplineSet
448 256 m 1,0,-1
 448 448 l 1,1,-1
 192 448 l 1,2,-1
 192 256 l 1,3,-1
 448 256 l 1,0,-1
128 0 m 1,4,-1
 128 64 l 1,5,-1
 320 64 l 1,6,-1
 320 128 l 1,7,-1
 384 128 l 1,8,-1
 384 192 l 1,9,-1
 128 192 l 1,10,-1
 128 256 l 1,11,-1
 64 256 l 1,12,-1
 64 448 l 1,13,-1
 128 448 l 1,14,-1
 128 512 l 1,15,-1
 512 512 l 1,16,-1
 512 448 l 1,17,-1
 576 448 l 1,18,-1
 576 192 l 1,19,-1
 512 192 l 1,20,-1
 512 128 l 1,21,-1
 448 128 l 1,22,-1
 448 64 l 1,23,-1
 384 64 l 1,24,-1
 384 0 l 1,25,-1
 128 0 l 1,4,-1
EndSplineSet
Validated: 1
EndChar

StartChar: colon
Encoding: 58 58 29
Width: 384
GlyphClass: 1
Flags: W
LayerCount: 3
Fore
SplineSet
192 0 m 5,0,-1
 192 128 l 5,1,-1
 320 128 l 5,2,-1
 320 0 l 5,3,-1
 192 0 l 5,0,-1
192 256 m 5,4,-1
 192 384 l 5,5,-1
 320 384 l 5,6,-1
 320 256 l 5,7,-1
 192 256 l 5,4,-1
EndSplineSet
Validated: 1
EndChar

StartChar: semicolon
Encoding: 59 59 30
Width: 384
GlyphClass: 1
Flags: W
LayerCount: 3
Fore
SplineSet
128 -192 m 1,0,-1
 128 -64 l 1,1,-1
 192 -64 l 1,2,-1
 192 128 l 1,3,-1
 320 128 l 1,4,-1
 320 -64 l 1,5,-1
 256 -64 l 1,6,-1
 256 -192 l 1,7,-1
 128 -192 l 1,0,-1
192 256 m 1,8,-1
 192 384 l 1,9,-1
 320 384 l 1,10,-1
 320 256 l 1,11,-1
 192 256 l 1,8,-1
EndSplineSet
Validated: 1
EndChar

StartChar: less
Encoding: 60 60 31
Width: 576
GlyphClass: 1
Flags: W
LayerCount: 3
Fore
SplineSet
384 -64 m 1,0,-1
 384 0 l 1,1,-1
 320 0 l 1,2,-1
 320 64 l 1,3,-1
 256 64 l 1,4,-1
 256 128 l 1,5,-1
 192 128 l 1,6,-1
 192 192 l 1,7,-1
 128 192 l 1,8,-1
 128 256 l 1,9,-1
 192 256 l 1,10,-1
 192 320 l 1,11,-1
 256 320 l 1,12,-1
 256 384 l 1,13,-1
 320 384 l 1,14,-1
 320 448 l 1,15,-1
 384 448 l 1,16,-1
 384 512 l 1,17,-1
 512 512 l 1,18,-1
 512 448 l 1,19,-1
 448 448 l 1,20,-1
 448 384 l 1,21,-1
 384 384 l 1,22,-1
 384 320 l 1,23,-1
 320 320 l 1,24,-1
 320 256 l 1,25,-1
 256 256 l 1,26,-1
 256 192 l 1,27,-1
 320 192 l 1,28,-1
 320 128 l 1,29,-1
 384 128 l 1,30,-1
 384 64 l 1,31,-1
 448 64 l 1,32,-1
 448 0 l 1,33,-1
 512 0 l 1,34,-1
 512 -64 l 1,35,-1
 384 -64 l 1,0,-1
EndSplineSet
Validated: 1
EndChar

StartChar: equal
Encoding: 61 61 32
Width: 640
GlyphClass: 1
Flags: W
LayerCount: 3
Fore
SplineSet
64 128 m 1,0,-1
 64 192 l 1,1,-1
 576 192 l 1,2,-1
 576 128 l 1,3,-1
 64 128 l 1,0,-1
64 256 m 1,4,-1
 64 320 l 1,5,-1
 576 320 l 1,6,-1
 576 256 l 1,7,-1
 64 256 l 1,4,-1
EndSplineSet
Validated: 1
EndChar

StartChar: greater
Encoding: 62 62 33
Width: 576
GlyphClass: 1
Flags: W
LayerCount: 3
Fore
SplineSet
128 -64 m 1,0,-1
 128 0 l 1,1,-1
 192 0 l 1,2,-1
 192 64 l 1,3,-1
 256 64 l 1,4,-1
 256 128 l 1,5,-1
 320 128 l 1,6,-1
 320 192 l 1,7,-1
 384 192 l 1,8,-1
 384 256 l 1,9,-1
 320 256 l 1,10,-1
 320 320 l 1,11,-1
 256 320 l 1,12,-1
 256 384 l 1,13,-1
 192 384 l 1,14,-1
 192 448 l 1,15,-1
 128 448 l 1,16,-1
 128 512 l 1,17,-1
 256 512 l 1,18,-1
 256 448 l 1,19,-1
 320 448 l 1,20,-1
 320 384 l 1,21,-1
 384 384 l 1,22,-1
 384 320 l 1,23,-1
 448 320 l 1,24,-1
 448 256 l 1,25,-1
 512 256 l 1,26,-1
 512 192 l 1,27,-1
 448 192 l 1,28,-1
 448 128 l 1,29,-1
 384 128 l 1,30,-1
 384 64 l 1,31,-1
 320 64 l 1,32,-1
 320 0 l 1,33,-1
 256 0 l 1,34,-1
 256 -64 l 1,35,-1
 128 -64 l 1,0,-1
EndSplineSet
Validated: 1
EndChar

StartChar: question
Encoding: 63 63 34
Width: 640
GlyphClass: 1
Flags: W
LayerCount: 3
Fore
SplineSet
256 0 m 1,0,-1
 256 64 l 1,1,-1
 384 64 l 1,2,-1
 384 0 l 1,3,-1
 256 0 l 1,0,-1
256 128 m 1,4,-1
 256 256 l 1,5,-1
 320 256 l 1,6,-1
 320 320 l 1,7,-1
 448 320 l 1,8,-1
 448 448 l 1,9,-1
 192 448 l 1,10,-1
 192 384 l 1,11,-1
 64 384 l 1,12,-1
 64 448 l 1,13,-1
 128 448 l 1,14,-1
 128 512 l 1,15,-1
 512 512 l 1,16,-1
 512 448 l 1,17,-1
 576 448 l 1,18,-1
 576 320 l 1,19,-1
 512 320 l 1,20,-1
 512 256 l 1,21,-1
 384 256 l 1,22,-1
 384 128 l 1,23,-1
 256 128 l 1,4,-1
EndSplineSet
Validated: 1
EndChar

StartChar: at
Encoding: 64 64 35
Width: 640
GlyphClass: 1
Flags: W
LayerCount: 3
Fore
SplineSet
128 0 m 1,0,-1
 128 64 l 1,1,-1
 512 64 l 1,2,-1
 512 0 l 1,3,-1
 128 0 l 1,0,-1
448 192 m 1,4,-1
 448 320 l 1,5,-1
 384 320 l 1,6,-1
 384 192 l 1,7,-1
 448 192 l 1,4,-1
64 64 m 1,8,-1
 64 448 l 1,9,-1
 128 448 l 1,10,-1
 128 64 l 1,11,-1
 64 64 l 1,8,-1
320 128 m 1,12,-1
 320 192 l 1,13,-1
 256 192 l 1,14,-1
 256 320 l 1,15,-1
 320 320 l 1,16,-1
 320 384 l 1,17,-1
 512 384 l 1,18,-1
 512 448 l 1,19,-1
 576 448 l 1,20,-1
 576 128 l 1,21,-1
 320 128 l 1,12,-1
128 448 m 1,22,-1
 128 512 l 1,23,-1
 512 512 l 1,24,-1
 512 448 l 1,25,-1
 128 448 l 1,22,-1
EndSplineSet
Validated: 5
EndChar

StartChar: A
Encoding: 65 65 36
Width: 640
GlyphClass: 1
Flags: W
LayerCount: 3
Fore
SplineSet
448 256 m 1,0,-1
 448 384 l 1,1,-1
 384 384 l 1,2,-1
 384 448 l 1,3,-1
 256 448 l 1,4,-1
 256 384 l 1,5,-1
 192 384 l 1,6,-1
 192 256 l 1,7,-1
 448 256 l 1,0,-1
64 0 m 1,8,-1
 64 384 l 1,9,-1
 128 384 l 1,10,-1
 128 448 l 1,11,-1
 192 448 l 1,12,-1
 192 512 l 1,13,-1
 448 512 l 1,14,-1
 448 448 l 1,15,-1
 512 448 l 1,16,-1
 512 384 l 1,17,-1
 576 384 l 1,18,-1
 576 0 l 1,19,-1
 448 0 l 1,20,-1
 448 192 l 1,21,-1
 192 192 l 1,22,-1
 192 0 l 1,23,-1
 64 0 l 1,8,-1
EndSplineSet
Validated: 1
EndChar

StartChar: B
Encoding: 66 66 37
Width: 640
GlyphClass: 1
Flags: W
LayerCount: 3
Fore
SplineSet
448 64 m 1,0,-1
 448 192 l 1,1,-1
 384 192 l 1,2,-1
 384 256 l 1,3,-1
 192 256 l 1,4,-1
 192 64 l 1,5,-1
 448 64 l 1,0,-1
384 320 m 1,6,-1
 384 448 l 1,7,-1
 192 448 l 1,8,-1
 192 320 l 1,9,-1
 384 320 l 1,6,-1
64 0 m 1,10,-1
 64 512 l 1,11,-1
 448 512 l 1,12,-1
 448 448 l 1,13,-1
 512 448 l 1,14,-1
 512 320 l 1,15,-1
 448 320 l 1,16,-1
 448 256 l 1,17,-1
 512 256 l 1,18,-1
 512 192 l 1,19,-1
 576 192 l 1,20,-1
 576 64 l 1,21,-1
 512 64 l 1,22,-1
 512 0 l 1,23,-1
 64 0 l 1,10,-1
EndSplineSet
Validated: 1
EndChar

StartChar: C
Encoding: 67 67 38
Width: 640
GlyphClass: 1
Flags: W
LayerCount: 3
Fore
SplineSet
192 0 m 1,0,-1
 192 64 l 1,1,-1
 128 64 l 1,2,-1
 128 128 l 1,3,-1
 64 128 l 1,4,-1
 64 384 l 1,5,-1
 128 384 l 1,6,-1
 128 448 l 1,7,-1
 192 448 l 1,8,-1
 192 512 l 1,9,-1
 512 512 l 1,10,-1
 512 448 l 1,11,-1
 576 448 l 1,12,-1
 576 384 l 1,13,-1
 448 384 l 1,14,-1
 448 448 l 1,15,-1
 256 448 l 1,16,-1
 256 384 l 1,17,-1
 192 384 l 1,18,-1
 192 128 l 1,19,-1
 256 128 l 1,20,-1
 256 64 l 1,21,-1
 448 64 l 1,22,-1
 448 128 l 1,23,-1
 576 128 l 1,24,-1
 576 64 l 1,25,-1
 512 64 l 1,26,-1
 512 0 l 1,27,-1
 192 0 l 1,0,-1
EndSplineSet
Validated: 1
EndChar

StartChar: D
Encoding: 68 68 39
Width: 640
GlyphClass: 1
Flags: W
LayerCount: 3
Fore
SplineSet
384 64 m 1,0,-1
 384 128 l 1,1,-1
 448 128 l 1,2,-1
 448 384 l 1,3,-1
 384 384 l 1,4,-1
 384 448 l 1,5,-1
 192 448 l 1,6,-1
 192 64 l 1,7,-1
 384 64 l 1,0,-1
64 0 m 1,8,-1
 64 512 l 1,9,-1
 448 512 l 1,10,-1
 448 448 l 1,11,-1
 512 448 l 1,12,-1
 512 384 l 1,13,-1
 576 384 l 1,14,-1
 576 128 l 1,15,-1
 512 128 l 1,16,-1
 512 64 l 1,17,-1
 448 64 l 1,18,-1
 448 0 l 1,19,-1
 64 0 l 1,8,-1
EndSplineSet
Validated: 1
EndChar

StartChar: E
Encoding: 69 69 40
Width: 576
GlyphClass: 1
Flags: W
LayerCount: 3
Fore
SplineSet
64 0 m 1,0,-1
 64 512 l 1,1,-1
 512 512 l 1,2,-1
 512 448 l 1,3,-1
 192 448 l 1,4,-1
 192 320 l 1,5,-1
 448 320 l 1,6,-1
 448 256 l 1,7,-1
 192 256 l 1,8,-1
 192 64 l 1,9,-1
 512 64 l 1,10,-1
 512 0 l 1,11,-1
 64 0 l 1,0,-1
EndSplineSet
Validated: 1
EndChar

StartChar: F
Encoding: 70 70 41
Width: 576
GlyphClass: 1
Flags: W
LayerCount: 3
Fore
SplineSet
64 0 m 1,0,-1
 64 512 l 1,1,-1
 512 512 l 1,2,-1
 512 448 l 1,3,-1
 192 448 l 1,4,-1
 192 320 l 1,5,-1
 448 320 l 1,6,-1
 448 256 l 1,7,-1
 192 256 l 1,8,-1
 192 0 l 1,9,-1
 64 0 l 1,0,-1
EndSplineSet
Validated: 1
EndChar

StartChar: G
Encoding: 71 71 42
Width: 640
GlyphClass: 1
Flags: W
LayerCount: 3
Fore
SplineSet
512 0 m 1,0,-1
 512 64 l 1,1,-1
 448 64 l 1,2,-1
 448 192 l 1,3,-1
 384 192 l 1,4,-1
 384 256 l 1,5,-1
 576 256 l 1,6,-1
 576 0 l 1,7,-1
 512 0 l 1,0,-1
192 0 m 1,8,-1
 192 64 l 1,9,-1
 128 64 l 1,10,-1
 128 128 l 1,11,-1
 64 128 l 1,12,-1
 64 384 l 1,13,-1
 128 384 l 1,14,-1
 128 448 l 1,15,-1
 192 448 l 1,16,-1
 192 512 l 1,17,-1
 512 512 l 1,18,-1
 512 448 l 1,19,-1
 576 448 l 1,20,-1
 576 384 l 1,21,-1
 448 384 l 1,22,-1
 448 448 l 1,23,-1
 256 448 l 1,24,-1
 256 384 l 1,25,-1
 192 384 l 1,26,-1
 192 128 l 1,27,-1
 256 128 l 1,28,-1
 256 64 l 1,29,-1
 448 64 l 1,30,-1
 448 0 l 1,31,-1
 192 0 l 1,8,-1
EndSplineSet
Validated: 5
EndChar

StartChar: H
Encoding: 72 72 43
Width: 640
GlyphClass: 1
Flags: W
LayerCount: 3
Fore
SplineSet
64 0 m 1,0,-1
 64 512 l 1,1,-1
 192 512 l 1,2,-1
 192 320 l 1,3,-1
 448 320 l 1,4,-1
 448 512 l 1,5,-1
 576 512 l 1,6,-1
 576 0 l 1,7,-1
 448 0 l 1,8,-1
 448 256 l 1,9,-1
 192 256 l 1,10,-1
 192 0 l 1,11,-1
 64 0 l 1,0,-1
EndSplineSet
Validated: 1
EndChar

StartChar: I
Encoding: 73 73 44
Width: 576
GlyphClass: 1
Flags: W
LayerCount: 3
Fore
SplineSet
128 0 m 1,0,-1
 128 64 l 1,1,-1
 256 64 l 1,2,-1
 256 448 l 1,3,-1
 128 448 l 1,4,-1
 128 512 l 1,5,-1
 512 512 l 1,6,-1
 512 448 l 1,7,-1
 384 448 l 1,8,-1
 384 64 l 1,9,-1
 512 64 l 1,10,-1
 512 0 l 1,11,-1
 128 0 l 1,0,-1
EndSplineSet
Validated: 1
EndChar

StartChar: J
Encoding: 74 74 45
Width: 576
GlyphClass: 1
Flags: W
LayerCount: 3
Fore
SplineSet
128 0 m 1,0,-1
 128 64 l 1,1,-1
 64 64 l 1,2,-1
 64 256 l 1,3,-1
 192 256 l 1,4,-1
 192 64 l 1,5,-1
 384 64 l 1,6,-1
 384 512 l 1,7,-1
 512 512 l 1,8,-1
 512 64 l 1,9,-1
 448 64 l 1,10,-1
 448 0 l 1,11,-1
 128 0 l 1,0,-1
EndSplineSet
Validated: 1
EndChar

StartChar: K
Encoding: 75 75 46
Width: 640
GlyphClass: 1
Flags: W
LayerCount: 3
Fore
SplineSet
64 0 m 1,0,-1
 64 512 l 1,1,-1
 192 512 l 1,2,-1
 192 256 l 1,3,-1
 256 256 l 1,4,-1
 256 320 l 1,5,-1
 320 320 l 1,6,-1
 320 384 l 1,7,-1
 384 384 l 1,8,-1
 384 448 l 1,9,-1
 448 448 l 1,10,-1
 448 512 l 1,11,-1
 576 512 l 1,12,-1
 576 448 l 1,13,-1
 512 448 l 1,14,-1
 512 384 l 1,15,-1
 448 384 l 1,16,-1
 448 320 l 1,17,-1
 384 320 l 1,18,-1
 384 192 l 1,19,-1
 448 192 l 1,20,-1
 448 128 l 1,21,-1
 512 128 l 1,22,-1
 512 64 l 1,23,-1
 576 64 l 1,24,-1
 576 0 l 1,25,-1
 448 0 l 1,26,-1
 448 64 l 1,27,-1
 384 64 l 1,28,-1
 384 128 l 1,29,-1
 320 128 l 1,30,-1
 320 192 l 1,31,-1
 192 192 l 1,32,-1
 192 0 l 1,33,-1
 64 0 l 1,0,-1
EndSplineSet
Validated: 1
EndChar

StartChar: L
Encoding: 76 76 47
Width: 640
GlyphClass: 1
Flags: W
LayerCount: 3
Fore
SplineSet
128 0 m 1,0,-1
 128 512 l 1,1,-1
 256 512 l 1,2,-1
 256 64 l 1,3,-1
 576 64 l 1,4,-1
 576 0 l 1,5,-1
 128 0 l 1,0,-1
EndSplineSet
Validated: 1
EndChar

StartChar: M
Encoding: 77 77 48
Width: 704
GlyphClass: 1
Flags: W
LayerCount: 3
Fore
SplineSet
320 128 m 1,0,-1
 320 256 l 1,1,-1
 384 256 l 1,2,-1
 384 128 l 1,3,-1
 320 128 l 1,0,-1
256 256 m 1,4,-1
 256 320 l 1,5,-1
 320 320 l 1,6,-1
 320 256 l 1,7,-1
 256 256 l 1,4,-1
384 256 m 1,8,-1
 384 320 l 1,9,-1
 448 320 l 1,10,-1
 448 256 l 1,11,-1
 384 256 l 1,8,-1
64 0 m 1,12,-1
 64 512 l 1,13,-1
 128 512 l 1,14,-1
 128 448 l 1,15,-1
 192 448 l 1,16,-1
 192 384 l 1,17,-1
 256 384 l 1,18,-1
 256 320 l 1,19,-1
 192 320 l 1,20,-1
 192 0 l 1,21,-1
 64 0 l 1,12,-1
512 0 m 1,22,-1
 512 320 l 1,23,-1
 448 320 l 1,24,-1
 448 384 l 1,25,-1
 512 384 l 1,26,-1
 512 448 l 1,27,-1
 576 448 l 1,28,-1
 576 512 l 1,29,-1
 640 512 l 1,30,-1
 640 0 l 1,31,-1
 512 0 l 1,22,-1
EndSplineSet
Validated: 5
EndChar

StartChar: N
Encoding: 78 78 49
Width: 640
GlyphClass: 1
Flags: W
LayerCount: 3
Fore
SplineSet
320 192 m 1,0,-1
 320 256 l 1,1,-1
 256 256 l 1,2,-1
 256 384 l 1,3,-1
 320 384 l 1,4,-1
 320 320 l 1,5,-1
 384 320 l 1,6,-1
 384 192 l 1,7,-1
 320 192 l 1,0,-1
64 0 m 1,8,-1
 64 512 l 1,9,-1
 256 512 l 1,10,-1
 256 384 l 1,11,-1
 192 384 l 1,12,-1
 192 0 l 1,13,-1
 64 0 l 1,8,-1
448 0 m 1,14,-1
 448 128 l 1,15,-1
 384 128 l 1,16,-1
 384 192 l 1,17,-1
 448 192 l 1,18,-1
 448 512 l 1,19,-1
 576 512 l 1,20,-1
 576 0 l 1,21,-1
 448 0 l 1,14,-1
EndSplineSet
Validated: 5
EndChar

StartChar: O
Encoding: 79 79 50
Width: 640
GlyphClass: 1
Flags: W
LayerCount: 3
Fore
SplineSet
384 64 m 1,0,-1
 384 128 l 1,1,-1
 448 128 l 1,2,-1
 448 384 l 1,3,-1
 384 384 l 1,4,-1
 384 448 l 1,5,-1
 256 448 l 1,6,-1
 256 384 l 1,7,-1
 192 384 l 1,8,-1
 192 128 l 1,9,-1
 256 128 l 1,10,-1
 256 64 l 1,11,-1
 384 64 l 1,0,-1
192 0 m 1,12,-1
 192 64 l 1,13,-1
 128 64 l 1,14,-1
 128 128 l 1,15,-1
 64 128 l 1,16,-1
 64 384 l 1,17,-1
 128 384 l 1,18,-1
 128 448 l 1,19,-1
 192 448 l 1,20,-1
 192 512 l 1,21,-1
 448 512 l 1,22,-1
 448 448 l 1,23,-1
 512 448 l 1,24,-1
 512 384 l 1,25,-1
 576 384 l 1,26,-1
 576 128 l 1,27,-1
 512 128 l 1,28,-1
 512 64 l 1,29,-1
 448 64 l 1,30,-1
 448 0 l 1,31,-1
 192 0 l 1,12,-1
EndSplineSet
Validated: 1
EndChar

StartChar: P
Encoding: 80 80 51
Width: 640
GlyphClass: 1
Flags: W
LayerCount: 3
Fore
SplineSet
448 256 m 1,0,-1
 448 448 l 1,1,-1
 192 448 l 1,2,-1
 192 256 l 1,3,-1
 448 256 l 1,0,-1
64 0 m 1,4,-1
 64 512 l 1,5,-1
 512 512 l 1,6,-1
 512 448 l 1,7,-1
 576 448 l 1,8,-1
 576 256 l 1,9,-1
 512 256 l 1,10,-1
 512 192 l 1,11,-1
 192 192 l 1,12,-1
 192 0 l 1,13,-1
 64 0 l 1,4,-1
EndSplineSet
Validated: 1
EndChar

StartChar: Q
Encoding: 81 81 52
Width: 640
GlyphClass: 1
Flags: W
LayerCount: 3
Fore
SplineSet
448 64 m 1,0,-1
 448 384 l 1,1,-1
 384 384 l 1,2,-1
 384 448 l 1,3,-1
 256 448 l 1,4,-1
 256 384 l 1,5,-1
 192 384 l 1,6,-1
 192 128 l 1,7,-1
 256 128 l 1,8,-1
 256 64 l 1,9,-1
 320 64 l 1,10,-1
 320 128 l 1,11,-1
 384 128 l 1,12,-1
 384 64 l 1,13,-1
 448 64 l 1,0,-1
448 -64 m 1,14,-1
 448 0 l 1,15,-1
 192 0 l 1,16,-1
 192 64 l 1,17,-1
 128 64 l 1,18,-1
 128 128 l 1,19,-1
 64 128 l 1,20,-1
 64 384 l 1,21,-1
 128 384 l 1,22,-1
 128 448 l 1,23,-1
 192 448 l 1,24,-1
 192 512 l 1,25,-1
 448 512 l 1,26,-1
 448 448 l 1,27,-1
 512 448 l 1,28,-1
 512 384 l 1,29,-1
 576 384 l 1,30,-1
 576 64 l 1,31,-1
 512 64 l 1,32,-1
 512 0 l 1,33,-1
 576 0 l 1,34,-1
 576 -64 l 1,35,-1
 448 -64 l 1,14,-1
EndSplineSet
Validated: 1
EndChar

StartChar: R
Encoding: 82 82 53
Width: 640
GlyphClass: 1
Flags: W
LayerCount: 3
Fore
SplineSet
384 256 m 1,0,-1
 384 320 l 1,1,-1
 448 320 l 1,2,-1
 448 448 l 1,3,-1
 192 448 l 1,4,-1
 192 256 l 1,5,-1
 384 256 l 1,0,-1
64 0 m 1,6,-1
 64 512 l 1,7,-1
 512 512 l 1,8,-1
 512 448 l 1,9,-1
 576 448 l 1,10,-1
 576 320 l 1,11,-1
 512 320 l 1,12,-1
 512 256 l 1,13,-1
 448 256 l 1,14,-1
 448 192 l 1,15,-1
 512 192 l 1,16,-1
 512 128 l 1,17,-1
 576 128 l 1,18,-1
 576 0 l 1,19,-1
 448 0 l 1,20,-1
 448 128 l 1,21,-1
 384 128 l 1,22,-1
 384 192 l 1,23,-1
 192 192 l 1,24,-1
 192 0 l 1,25,-1
 64 0 l 1,6,-1
EndSplineSet
Validated: 1
EndChar

StartChar: S
Encoding: 83 83 54
Width: 640
GlyphClass: 1
Flags: W
LayerCount: 3
Fore
SplineSet
128 0 m 1,0,-1
 128 64 l 1,1,-1
 64 64 l 1,2,-1
 64 128 l 1,3,-1
 192 128 l 1,4,-1
 192 64 l 1,5,-1
 448 64 l 1,6,-1
 448 192 l 1,7,-1
 256 192 l 1,8,-1
 256 256 l 1,9,-1
 128 256 l 1,10,-1
 128 320 l 1,11,-1
 64 320 l 1,12,-1
 64 448 l 1,13,-1
 128 448 l 1,14,-1
 128 512 l 1,15,-1
 512 512 l 1,16,-1
 512 448 l 1,17,-1
 576 448 l 1,18,-1
 576 384 l 1,19,-1
 448 384 l 1,20,-1
 448 448 l 1,21,-1
 192 448 l 1,22,-1
 192 320 l 1,23,-1
 384 320 l 1,24,-1
 384 256 l 1,25,-1
 512 256 l 1,26,-1
 512 192 l 1,27,-1
 576 192 l 1,28,-1
 576 64 l 1,29,-1
 512 64 l 1,30,-1
 512 0 l 1,31,-1
 128 0 l 1,0,-1
EndSplineSet
Validated: 1
EndChar

StartChar: T
Encoding: 84 84 55
Width: 640
GlyphClass: 1
Flags: W
LayerCount: 3
Fore
SplineSet
256 0 m 1,0,-1
 256 448 l 1,1,-1
 64 448 l 1,2,-1
 64 512 l 1,3,-1
 576 512 l 1,4,-1
 576 448 l 1,5,-1
 384 448 l 1,6,-1
 384 0 l 1,7,-1
 256 0 l 1,0,-1
EndSplineSet
Validated: 1
EndChar

StartChar: U
Encoding: 85 85 56
Width: 640
GlyphClass: 1
Flags: W
LayerCount: 3
Fore
SplineSet
128 0 m 1,0,-1
 128 64 l 1,1,-1
 64 64 l 1,2,-1
 64 512 l 1,3,-1
 192 512 l 1,4,-1
 192 64 l 1,5,-1
 448 64 l 1,6,-1
 448 512 l 1,7,-1
 576 512 l 1,8,-1
 576 64 l 1,9,-1
 512 64 l 1,10,-1
 512 0 l 1,11,-1
 128 0 l 1,0,-1
EndSplineSet
Validated: 1
EndChar

StartChar: V
Encoding: 86 86 57
Width: 640
GlyphClass: 1
Flags: W
LayerCount: 3
Fore
SplineSet
256 0 m 1,0,-1
 256 64 l 1,1,-1
 192 64 l 1,2,-1
 192 128 l 1,3,-1
 128 128 l 1,4,-1
 128 192 l 1,5,-1
 64 192 l 1,6,-1
 64 512 l 1,7,-1
 192 512 l 1,8,-1
 192 192 l 1,9,-1
 256 192 l 1,10,-1
 256 128 l 1,11,-1
 384 128 l 1,12,-1
 384 192 l 1,13,-1
 448 192 l 1,14,-1
 448 512 l 1,15,-1
 576 512 l 1,16,-1
 576 192 l 1,17,-1
 512 192 l 1,18,-1
 512 128 l 1,19,-1
 448 128 l 1,20,-1
 448 64 l 1,21,-1
 384 64 l 1,22,-1
 384 0 l 1,23,-1
 256 0 l 1,0,-1
EndSplineSet
Validated: 1
EndChar

StartChar: W
Encoding: 87 87 58
Width: 704
GlyphClass: 1
Flags: W
LayerCount: 3
Fore
SplineSet
320 192 m 1,0,-1
 320 384 l 1,1,-1
 384 384 l 1,2,-1
 384 192 l 1,3,-1
 320 192 l 1,0,-1
128 0 m 1,4,-1
 128 192 l 1,5,-1
 64 192 l 1,6,-1
 64 512 l 1,7,-1
 192 512 l 1,8,-1
 192 192 l 1,9,-1
 320 192 l 1,10,-1
 320 128 l 1,11,-1
 256 128 l 1,12,-1
 256 0 l 1,13,-1
 128 0 l 1,4,-1
448 0 m 1,14,-1
 448 128 l 1,15,-1
 384 128 l 1,16,-1
 384 192 l 1,17,-1
 512 192 l 1,18,-1
 512 512 l 1,19,-1
 640 512 l 1,20,-1
 640 192 l 1,21,-1
 576 192 l 1,22,-1
 576 0 l 1,23,-1
 448 0 l 1,14,-1
EndSplineSet
Validated: 5
EndChar

StartChar: X
Encoding: 88 88 59
Width: 704
GlyphClass: 1
Flags: W
LayerCount: 3
Fore
SplineSet
64 0 m 1,0,-1
 64 64 l 1,1,-1
 128 64 l 1,2,-1
 128 128 l 1,3,-1
 192 128 l 1,4,-1
 192 192 l 1,5,-1
 256 192 l 1,6,-1
 256 320 l 1,7,-1
 192 320 l 1,8,-1
 192 384 l 1,9,-1
 128 384 l 1,10,-1
 128 448 l 1,11,-1
 64 448 l 1,12,-1
 64 512 l 1,13,-1
 192 512 l 1,14,-1
 192 448 l 1,15,-1
 256 448 l 1,16,-1
 256 384 l 1,17,-1
 320 384 l 1,18,-1
 320 320 l 1,19,-1
 384 320 l 1,20,-1
 384 384 l 1,21,-1
 448 384 l 1,22,-1
 448 448 l 1,23,-1
 512 448 l 1,24,-1
 512 512 l 1,25,-1
 640 512 l 1,26,-1
 640 448 l 1,27,-1
 576 448 l 1,28,-1
 576 384 l 1,29,-1
 512 384 l 1,30,-1
 512 320 l 1,31,-1
 448 320 l 1,32,-1
 448 192 l 1,33,-1
 512 192 l 1,34,-1
 512 128 l 1,35,-1
 576 128 l 1,36,-1
 576 64 l 1,37,-1
 640 64 l 1,38,-1
 640 0 l 1,39,-1
 512 0 l 1,40,-1
 512 64 l 1,41,-1
 448 64 l 1,42,-1
 448 128 l 1,43,-1
 384 128 l 1,44,-1
 384 192 l 1,45,-1
 320 192 l 1,46,-1
 320 128 l 1,47,-1
 256 128 l 1,48,-1
 256 64 l 1,49,-1
 192 64 l 1,50,-1
 192 0 l 1,51,-1
 64 0 l 1,0,-1
EndSplineSet
Validated: 1
EndChar

StartChar: Y
Encoding: 89 89 60
Width: 640
GlyphClass: 1
Flags: W
LayerCount: 3
Fore
SplineSet
256 0 m 1,0,-1
 256 192 l 1,1,-1
 192 192 l 1,2,-1
 192 256 l 1,3,-1
 128 256 l 1,4,-1
 128 320 l 1,5,-1
 64 320 l 1,6,-1
 64 512 l 1,7,-1
 192 512 l 1,8,-1
 192 320 l 1,9,-1
 256 320 l 1,10,-1
 256 256 l 1,11,-1
 384 256 l 1,12,-1
 384 320 l 1,13,-1
 448 320 l 1,14,-1
 448 512 l 1,15,-1
 576 512 l 1,16,-1
 576 320 l 1,17,-1
 512 320 l 1,18,-1
 512 256 l 1,19,-1
 448 256 l 1,20,-1
 448 192 l 1,21,-1
 384 192 l 1,22,-1
 384 0 l 1,23,-1
 256 0 l 1,0,-1
EndSplineSet
Validated: 1
EndChar

StartChar: Z
Encoding: 90 90 61
Width: 640
GlyphClass: 1
Flags: W
LayerCount: 3
Fore
SplineSet
64 0 m 1,0,-1
 64 128 l 1,1,-1
 128 128 l 1,2,-1
 128 192 l 1,3,-1
 192 192 l 1,4,-1
 192 256 l 1,5,-1
 256 256 l 1,6,-1
 256 320 l 1,7,-1
 320 320 l 1,8,-1
 320 384 l 1,9,-1
 384 384 l 1,10,-1
 384 448 l 1,11,-1
 64 448 l 1,12,-1
 64 512 l 1,13,-1
 576 512 l 1,14,-1
 576 384 l 1,15,-1
 448 384 l 1,16,-1
 448 320 l 1,17,-1
 384 320 l 1,18,-1
 384 256 l 1,19,-1
 320 256 l 1,20,-1
 320 192 l 1,21,-1
 256 192 l 1,22,-1
 256 128 l 1,23,-1
 192 128 l 1,24,-1
 192 64 l 1,25,-1
 576 64 l 1,26,-1
 576 0 l 1,27,-1
 64 0 l 1,0,-1
EndSplineSet
Validated: 1
EndChar

StartChar: bracketleft
Encoding: 91 91 62
Width: 640
GlyphClass: 1
Flags: W
LayerCount: 3
Fore
SplineSet
191 126 m 5,0,-1
 191 62 l 5,1,-1
 127 62 l 5,2,-1
 127 126 l 5,3,-1
 191 126 l 5,0,-1
191 512 m 5,4,-1
 191 448 l 5,5,-1
 127 448 l 5,6,-1
 127 512 l 5,7,-1
 191 512 l 5,4,-1
319 126 m 5,8,-1
 319 62 l 5,9,-1
 191 62 l 5,10,-1
 191 126 l 5,11,-1
 319 126 l 5,8,-1
191 448 m 5,12,-1
 191 126 l 5,13,-1
 127 126 l 5,14,-1
 127 448 l 5,15,-1
 191 448 l 5,12,-1
321 513 m 5,16,-1
 321 449 l 5,17,-1
 191 448 l 5,18,-1
 191 512 l 5,19,-1
 321 513 l 5,16,-1
EndSplineSet
Validated: 5
EndChar

StartChar: backslash
Encoding: 92 92 63
Width: 640
GlyphClass: 1
Flags: W
LayerCount: 3
Fore
SplineSet
320 -64 m 1,0,-1
 320 64 l 1,1,-1
 384 64 l 1,2,-1
 384 128 l 1,3,-1
 512 128 l 1,4,-1
 512 192 l 1,5,-1
 320 192 l 1,6,-1
 320 256 l 1,7,-1
 576 256 l 1,8,-1
 576 64 l 1,9,-1
 448 64 l 1,10,-1
 448 0 l 1,11,-1
 576 0 l 1,12,-1
 576 -64 l 1,13,-1
 320 -64 l 1,0,-1
64 192 m 1,14,-1
 64 256 l 1,15,-1
 128 256 l 1,16,-1
 128 384 l 1,17,-1
 64 384 l 1,18,-1
 64 448 l 1,19,-1
 128 448 l 1,20,-1
 128 512 l 1,21,-1
 192 512 l 1,22,-1
 192 256 l 1,23,-1
 256 256 l 1,24,-1
 256 192 l 1,25,-1
 64 192 l 1,14,-1
EndSplineSet
Validated: 1
EndChar

StartChar: bracketright
Encoding: 93 93 64
Width: 640
GlyphClass: 1
Flags: W
LayerCount: 3
Fore
SplineSet
383 126 m 1,0,-1
 383 62 l 1,1,-1
 319 62 l 1,2,-1
 319 126 l 1,3,-1
 383 126 l 1,0,-1
385 513 m 1,4,-1
 385 449 l 1,5,-1
 321 449 l 1,6,-1
 321 513 l 1,7,-1
 385 513 l 1,4,-1
319 126 m 1,8,-1
 319 62 l 1,9,-1
 191 62 l 1,10,-1
 191 126 l 1,11,-1
 319 126 l 1,8,-1
385 449 m 1,12,-1
 385 127 l 1,13,-1
 321 127 l 1,14,-1
 321 449 l 1,15,-1
 385 449 l 1,12,-1
321 513 m 1,16,-1
 321 449 l 1,17,-1
 191 448 l 1,18,-1
 191 512 l 1,19,-1
 321 513 l 1,16,-1
EndSplineSet
Validated: 5
EndChar

StartChar: asciicircum
Encoding: 94 94 65
Width: 640
GlyphClass: 1
Flags: W
LayerCount: 3
Fore
SplineSet
320 449 m 1,0,-1
 320 384 l 1,1,-1
 256 384 l 1,2,-1
 256 320 l 1,3,-1
 128 320 l 1,4,-1
 128 384 l 1,5,-1
 192 384 l 1,6,-1
 192 448 l 1,7,-1
 256 448 l 1,8,-1
 256 512 l 1,9,-1
 320 512 l 1,10,-1
 320 576 l 1,11,-1
 384 576 l 1,12,-1
 384 512 l 1,13,-1
 448 512 l 1,14,-1
 448 448 l 1,15,-1
 512 448 l 1,16,-1
 512 384 l 1,17,-1
 576 384 l 1,18,-1
 576 320 l 1,19,-1
 448 320 l 1,20,-1
 448 384 l 1,21,-1
 384 384 l 1,22,-1
 384 449 l 1,23,-1
 320 449 l 1,0,-1
EndSplineSet
Validated: 1
EndChar

StartChar: grave
Encoding: 96 96 67
Width: 384
GlyphClass: 1
Flags: W
LayerCount: 3
Fore
SplineSet
200 504 m 1,0,-1
 274 504 l 1,1,-1
 274 431 l 1,2,-1
 200 431 l 1,3,-1
 200 504 l 1,0,-1
126 579 m 1,4,-1
 200 579 l 1,5,-1
 200 506 l 1,6,-1
 126 506 l 1,7,-1
 126 579 l 1,4,-1
162 540 m 1,8,-1
 236 540 l 1,9,-1
 236 467 l 1,10,-1
 162 467 l 1,11,-1
 162 540 l 1,8,-1
126 579 m 1,12,-1
 200 579 l 1,13,-1
 200 506 l 1,14,-1
 126 506 l 1,15,-1
 126 579 l 1,12,-1
EndSplineSet
Validated: 5
EndChar

StartChar: a
Encoding: 97 97 68
Width: 640
GlyphClass: 1
Flags: W
LayerCount: 3
Fore
SplineSet
128 0 m 1,0,-1
 128 64 l 1,1,-1
 64 64 l 1,2,-1
 64 128 l 1,3,-1
 128 128 l 1,4,-1
 128 192 l 1,5,-1
 320 192 l 1,6,-1
 320 128 l 1,7,-1
 192 128 l 1,8,-1
 192 64 l 1,9,-1
 448 64 l 1,10,-1
 448 192 l 1,11,-1
 320 192 l 1,12,-1
 320 256 l 1,13,-1
 448 256 l 1,14,-1
 448 320 l 1,15,-1
 192 320 l 1,16,-1
 192 256 l 1,17,-1
 64 256 l 1,18,-1
 64 320 l 1,19,-1
 128 320 l 1,20,-1
 128 384 l 1,21,-1
 512 384 l 1,22,-1
 512 64 l 1,23,-1
 576 64 l 1,24,-1
 576 0 l 1,25,-1
 128 0 l 1,0,-1
EndSplineSet
Validated: 5
EndChar

StartChar: b
Encoding: 98 98 69
Width: 640
GlyphClass: 1
Flags: W
LayerCount: 3
Fore
SplineSet
256 0 m 1,0,-1
 256 64 l 1,1,-1
 448 64 l 1,2,-1
 448 320 l 1,3,-1
 256 320 l 1,4,-1
 256 384 l 1,5,-1
 512 384 l 1,6,-1
 512 320 l 1,7,-1
 576 320 l 1,8,-1
 576 64 l 1,9,-1
 512 64 l 1,10,-1
 512 0 l 1,11,-1
 256 0 l 1,0,-1
64 0 m 1,12,-1
 64 512 l 1,13,-1
 192 512 l 1,14,-1
 192 320 l 1,15,-1
 256 320 l 1,16,-1
 256 256 l 1,17,-1
 192 256 l 1,18,-1
 192 128 l 1,19,-1
 256 128 l 1,20,-1
 256 64 l 1,21,-1
 192 64 l 1,22,-1
 192 0 l 1,23,-1
 64 0 l 1,12,-1
EndSplineSet
Validated: 5
EndChar

StartChar: c
Encoding: 99 99 70
Width: 640
GlyphClass: 1
Flags: W
LayerCount: 3
Fore
SplineSet
128 0 m 1,0,-1
 128 64 l 1,1,-1
 64 64 l 1,2,-1
 64 320 l 1,3,-1
 128 320 l 1,4,-1
 128 384 l 1,5,-1
 512 384 l 1,6,-1
 512 320 l 1,7,-1
 576 320 l 1,8,-1
 576 256 l 1,9,-1
 448 256 l 1,10,-1
 448 320 l 1,11,-1
 192 320 l 1,12,-1
 192 64 l 1,13,-1
 448 64 l 1,14,-1
 448 128 l 1,15,-1
 576 128 l 1,16,-1
 576 64 l 1,17,-1
 512 64 l 1,18,-1
 512 0 l 1,19,-1
 128 0 l 1,0,-1
EndSplineSet
Validated: 1
EndChar

StartChar: d
Encoding: 100 100 71
Width: 640
GlyphClass: 1
Flags: W
LayerCount: 3
Fore
SplineSet
128 0 m 1,0,-1
 128 64 l 1,1,-1
 64 64 l 1,2,-1
 64 320 l 1,3,-1
 128 320 l 1,4,-1
 128 384 l 1,5,-1
 384 384 l 1,6,-1
 384 320 l 1,7,-1
 192 320 l 1,8,-1
 192 64 l 1,9,-1
 384 64 l 1,10,-1
 384 0 l 1,11,-1
 128 0 l 1,0,-1
448 0 m 1,12,-1
 448 64 l 1,13,-1
 384 64 l 1,14,-1
 384 128 l 1,15,-1
 448 128 l 1,16,-1
 448 256 l 1,17,-1
 384 256 l 1,18,-1
 384 320 l 1,19,-1
 448 320 l 1,20,-1
 448 512 l 1,21,-1
 576 512 l 1,22,-1
 576 0 l 1,23,-1
 448 0 l 1,12,-1
EndSplineSet
Validated: 5
EndChar

StartChar: e
Encoding: 101 101 72
Width: 640
GlyphClass: 1
Flags: W
LayerCount: 3
Fore
SplineSet
448 256 m 1,0,-1
 448 320 l 1,1,-1
 192 320 l 1,2,-1
 192 256 l 1,3,-1
 448 256 l 1,0,-1
128 0 m 1,4,-1
 128 64 l 1,5,-1
 64 64 l 1,6,-1
 64 320 l 1,7,-1
 128 320 l 1,8,-1
 128 384 l 1,9,-1
 512 384 l 1,10,-1
 512 320 l 1,11,-1
 576 320 l 1,12,-1
 576 192 l 1,13,-1
 192 192 l 1,14,-1
 192 64 l 1,15,-1
 448 64 l 1,16,-1
 448 128 l 1,17,-1
 576 128 l 1,18,-1
 576 64 l 1,19,-1
 512 64 l 1,20,-1
 512 0 l 1,21,-1
 128 0 l 1,4,-1
EndSplineSet
Validated: 1
EndChar

StartChar: f
Encoding: 102 102 73
Width: 640
GlyphClass: 1
Flags: W
LayerCount: 3
Fore
SplineSet
192 0 m 1,0,-1
 192 256 l 1,1,-1
 64 256 l 1,2,-1
 64 320 l 1,3,-1
 192 320 l 1,4,-1
 192 448 l 1,5,-1
 256 448 l 1,6,-1
 256 512 l 1,7,-1
 576 512 l 1,8,-1
 576 448 l 1,9,-1
 320 448 l 1,10,-1
 320 320 l 1,11,-1
 576 320 l 1,12,-1
 576 256 l 1,13,-1
 320 256 l 1,14,-1
 320 0 l 1,15,-1
 192 0 l 1,0,-1
EndSplineSet
Validated: 1
EndChar

StartChar: g
Encoding: 103 103 74
Width: 640
GlyphClass: 1
Flags: W
LayerCount: 3
Fore
SplineSet
128 64 m 1,0,-1
 128 128 l 1,1,-1
 64 128 l 1,2,-1
 64 320 l 1,3,-1
 128 320 l 1,4,-1
 128 384 l 1,5,-1
 384 384 l 1,6,-1
 384 320 l 1,7,-1
 192 320 l 1,8,-1
 192 128 l 1,9,-1
 384 128 l 1,10,-1
 384 64 l 1,11,-1
 128 64 l 1,0,-1
128 -128 m 1,12,-1
 128 -64 l 1,13,-1
 64 -64 l 1,14,-1
 64 0 l 1,15,-1
 192 0 l 1,16,-1
 192 -64 l 1,17,-1
 448 -64 l 1,18,-1
 448 128 l 1,19,-1
 384 128 l 1,20,-1
 384 192 l 1,21,-1
 448 192 l 1,22,-1
 448 256 l 1,23,-1
 384 256 l 1,24,-1
 384 320 l 1,25,-1
 448 320 l 1,26,-1
 448 384 l 1,27,-1
 576 384 l 1,28,-1
 576 0 l 1,29,-1
 512 0 l 1,30,-1
 512 -128 l 1,31,-1
 128 -128 l 1,12,-1
EndSplineSet
Validated: 5
EndChar

StartChar: h
Encoding: 104 104 75
Width: 640
GlyphClass: 1
Flags: W
LayerCount: 3
Fore
SplineSet
448 0 m 1,0,-1
 448 320 l 1,1,-1
 256 320 l 1,2,-1
 256 384 l 1,3,-1
 512 384 l 1,4,-1
 512 320 l 1,5,-1
 576 320 l 1,6,-1
 576 0 l 1,7,-1
 448 0 l 1,0,-1
64 0 m 1,8,-1
 64 512 l 1,9,-1
 192 512 l 1,10,-1
 192 320 l 1,11,-1
 256 320 l 1,12,-1
 256 256 l 1,13,-1
 192 256 l 1,14,-1
 192 0 l 1,15,-1
 64 0 l 1,8,-1
EndSplineSet
Validated: 5
EndChar

StartChar: i
Encoding: 105 105 76
Width: 640
GlyphClass: 1
Flags: W
LayerCount: 3
Fore
SplineSet
64 0 m 1,0,-1
 64 64 l 1,1,-1
 256 64 l 1,2,-1
 256 320 l 1,3,-1
 128 320 l 1,4,-1
 128 384 l 1,5,-1
 384 384 l 1,6,-1
 384 64 l 1,7,-1
 576 64 l 1,8,-1
 576 0 l 1,9,-1
 64 0 l 1,0,-1
256 448 m 1,10,-1
 256 512 l 1,11,-1
 384 512 l 1,12,-1
 384 448 l 1,13,-1
 256 448 l 1,10,-1
EndSplineSet
Validated: 1
EndChar

StartChar: j
Encoding: 106 106 77
Width: 576
GlyphClass: 1
Flags: W
LayerCount: 3
Fore
SplineSet
128 -128 m 1,0,-1
 128 -64 l 1,1,-1
 64 -64 l 1,2,-1
 64 64 l 1,3,-1
 192 64 l 1,4,-1
 192 -64 l 1,5,-1
 384 -64 l 1,6,-1
 384 320 l 1,7,-1
 256 320 l 1,8,-1
 256 384 l 1,9,-1
 512 384 l 1,10,-1
 512 -64 l 1,11,-1
 448 -64 l 1,12,-1
 448 -128 l 1,13,-1
 128 -128 l 1,0,-1
384 448 m 5,14,-1
 384 512 l 5,15,-1
 512 512 l 5,16,-1
 512 448 l 5,17,-1
 384 448 l 5,14,-1
EndSplineSet
Validated: 1
EndChar

StartChar: k
Encoding: 107 107 78
Width: 640
GlyphClass: 1
Flags: W
LayerCount: 3
Fore
SplineSet
64 0 m 1,0,-1
 64 512 l 1,1,-1
 192 512 l 1,2,-1
 192 192 l 1,3,-1
 320 192 l 1,4,-1
 320 256 l 1,5,-1
 384 256 l 1,6,-1
 384 320 l 1,7,-1
 448 320 l 1,8,-1
 448 384 l 1,9,-1
 576 384 l 1,10,-1
 576 320 l 1,11,-1
 512 320 l 1,12,-1
 512 256 l 1,13,-1
 448 256 l 1,14,-1
 448 128 l 1,15,-1
 576 128 l 1,16,-1
 576 0 l 1,17,-1
 448 0 l 1,18,-1
 448 64 l 1,19,-1
 384 64 l 1,20,-1
 384 128 l 1,21,-1
 192 128 l 1,22,-1
 192 0 l 1,23,-1
 64 0 l 1,0,-1
EndSplineSet
Validated: 1
EndChar

StartChar: l
Encoding: 108 108 79
Width: 640
GlyphClass: 1
Flags: W
LayerCount: 3
Fore
SplineSet
64 0 m 1,0,-1
 64 64 l 1,1,-1
 256 64 l 1,2,-1
 256 448 l 1,3,-1
 128 448 l 1,4,-1
 128 512 l 1,5,-1
 384 512 l 1,6,-1
 384 64 l 1,7,-1
 576 64 l 1,8,-1
 576 0 l 1,9,-1
 64 0 l 1,0,-1
EndSplineSet
Validated: 1
EndChar

StartChar: m
Encoding: 109 109 80
Width: 704
GlyphClass: 1
Flags: W
LayerCount: 3
Fore
SplineSet
320 0 m 1,0,-1
 320 320 l 1,1,-1
 384 320 l 1,2,-1
 384 0 l 1,3,-1
 320 0 l 1,0,-1
64 0 m 1,4,-1
 64 384 l 1,5,-1
 320 384 l 1,6,-1
 320 320 l 1,7,-1
 192 320 l 1,8,-1
 192 0 l 1,9,-1
 64 0 l 1,4,-1
512 0 m 1,10,-1
 512 320 l 1,11,-1
 384 320 l 1,12,-1
 384 384 l 1,13,-1
 576 384 l 1,14,-1
 576 320 l 1,15,-1
 640 320 l 1,16,-1
 640 0 l 1,17,-1
 512 0 l 1,10,-1
EndSplineSet
Validated: 5
EndChar

StartChar: n
Encoding: 110 110 81
Width: 640
GlyphClass: 1
Flags: W
LayerCount: 3
Fore
SplineSet
64 0 m 1,0,-1
 64 384 l 1,1,-1
 192 384 l 1,2,-1
 192 320 l 1,3,-1
 256 320 l 1,4,-1
 256 256 l 1,5,-1
 192 256 l 1,6,-1
 192 0 l 1,7,-1
 64 0 l 1,0,-1
448 0 m 1,8,-1
 448 320 l 1,9,-1
 256 320 l 1,10,-1
 256 384 l 1,11,-1
 512 384 l 1,12,-1
 512 320 l 1,13,-1
 576 320 l 1,14,-1
 576 0 l 1,15,-1
 448 0 l 1,8,-1
EndSplineSet
Validated: 5
EndChar

StartChar: o
Encoding: 111 111 82
Width: 640
GlyphClass: 1
Flags: W
LayerCount: 3
Fore
SplineSet
448 64 m 1,0,-1
 448 320 l 1,1,-1
 192 320 l 1,2,-1
 192 64 l 1,3,-1
 448 64 l 1,0,-1
128 0 m 1,4,-1
 128 64 l 1,5,-1
 64 64 l 1,6,-1
 64 320 l 1,7,-1
 128 320 l 1,8,-1
 128 384 l 1,9,-1
 512 384 l 1,10,-1
 512 320 l 1,11,-1
 576 320 l 1,12,-1
 576 64 l 1,13,-1
 512 64 l 1,14,-1
 512 0 l 1,15,-1
 128 0 l 1,4,-1
EndSplineSet
Validated: 1
EndChar

StartChar: p
Encoding: 112 112 83
Width: 640
GlyphClass: 1
Flags: W
LayerCount: 3
Fore
SplineSet
64 -192 m 1,0,-1
 64 384 l 1,1,-1
 192 384 l 1,2,-1
 192 320 l 1,3,-1
 256 320 l 1,4,-1
 256 256 l 1,5,-1
 192 256 l 1,6,-1
 192 128 l 1,7,-1
 256 128 l 1,8,-1
 256 64 l 1,9,-1
 192 64 l 1,10,-1
 192 -192 l 1,11,-1
 64 -192 l 1,0,-1
256 0 m 1,12,-1
 256 64 l 1,13,-1
 448 64 l 1,14,-1
 448 320 l 1,15,-1
 256 320 l 1,16,-1
 256 384 l 1,17,-1
 512 384 l 1,18,-1
 512 320 l 1,19,-1
 576 320 l 1,20,-1
 576 64 l 1,21,-1
 512 64 l 1,22,-1
 512 0 l 1,23,-1
 256 0 l 1,12,-1
EndSplineSet
Validated: 5
EndChar

StartChar: q
Encoding: 113 113 84
Width: 640
GlyphClass: 1
Flags: W
LayerCount: 3
Fore
SplineSet
128 0 m 1,0,-1
 128 64 l 1,1,-1
 64 64 l 1,2,-1
 64 320 l 1,3,-1
 128 320 l 1,4,-1
 128 384 l 1,5,-1
 384 384 l 1,6,-1
 384 320 l 1,7,-1
 192 320 l 1,8,-1
 192 64 l 1,9,-1
 384 64 l 1,10,-1
 384 0 l 1,11,-1
 128 0 l 1,0,-1
448 -192 m 1,12,-1
 448 64 l 1,13,-1
 384 64 l 1,14,-1
 384 128 l 1,15,-1
 448 128 l 1,16,-1
 448 256 l 1,17,-1
 384 256 l 1,18,-1
 384 320 l 1,19,-1
 448 320 l 1,20,-1
 448 384 l 1,21,-1
 576 384 l 1,22,-1
 576 -192 l 1,23,-1
 448 -192 l 1,12,-1
EndSplineSet
Validated: 5
EndChar

StartChar: r
Encoding: 114 114 85
Width: 640
GlyphClass: 1
Flags: W
LayerCount: 3
Fore
SplineSet
64 0 m 1,0,-1
 64 64 l 1,1,-1
 128 64 l 1,2,-1
 128 320 l 1,3,-1
 64 320 l 1,4,-1
 64 384 l 1,5,-1
 192 384 l 1,6,-1
 192 320 l 1,7,-1
 256 320 l 1,8,-1
 256 256 l 1,9,-1
 192 256 l 1,10,-1
 192 64 l 1,11,-1
 256 64 l 1,12,-1
 256 0 l 1,13,-1
 64 0 l 1,0,-1
448 256 m 1,14,-1
 448 320 l 1,15,-1
 256 320 l 1,16,-1
 256 384 l 1,17,-1
 512 384 l 1,18,-1
 512 320 l 1,19,-1
 576 320 l 1,20,-1
 576 256 l 1,21,-1
 448 256 l 1,14,-1
EndSplineSet
Validated: 5
EndChar

StartChar: s
Encoding: 115 115 86
Width: 640
GlyphClass: 1
Flags: W
LayerCount: 3
Fore
SplineSet
128 0 m 1,0,-1
 128 64 l 1,1,-1
 64 64 l 1,2,-1
 64 128 l 1,3,-1
 192 128 l 1,4,-1
 192 64 l 1,5,-1
 448 64 l 1,6,-1
 448 128 l 1,7,-1
 320 128 l 1,8,-1
 320 192 l 1,9,-1
 128 192 l 1,10,-1
 128 256 l 1,11,-1
 64 256 l 1,12,-1
 64 320 l 1,13,-1
 128 320 l 1,14,-1
 128 384 l 1,15,-1
 512 384 l 1,16,-1
 512 320 l 1,17,-1
 576 320 l 1,18,-1
 576 256 l 1,19,-1
 448 256 l 1,20,-1
 448 320 l 1,21,-1
 192 320 l 1,22,-1
 192 256 l 1,23,-1
 384 256 l 1,24,-1
 384 192 l 1,25,-1
 512 192 l 1,26,-1
 512 128 l 1,27,-1
 576 128 l 1,28,-1
 576 64 l 1,29,-1
 512 64 l 1,30,-1
 512 0 l 1,31,-1
 128 0 l 1,0,-1
EndSplineSet
Validated: 1
EndChar

StartChar: t
Encoding: 116 116 87
Width: 640
GlyphClass: 1
Flags: W
LayerCount: 3
Fore
SplineSet
256 0 m 1,0,-1
 256 64 l 1,1,-1
 192 64 l 1,2,-1
 192 320 l 1,3,-1
 64 320 l 1,4,-1
 64 384 l 1,5,-1
 192 384 l 1,6,-1
 192 448 l 1,7,-1
 256 448 l 1,8,-1
 256 512 l 1,9,-1
 320 512 l 1,10,-1
 320 384 l 1,11,-1
 512 384 l 1,12,-1
 512 320 l 1,13,-1
 320 320 l 1,14,-1
 320 64 l 1,15,-1
 448 64 l 1,16,-1
 448 128 l 1,17,-1
 576 128 l 1,18,-1
 576 64 l 1,19,-1
 512 64 l 1,20,-1
 512 0 l 1,21,-1
 256 0 l 1,0,-1
EndSplineSet
Validated: 1
EndChar

StartChar: u
Encoding: 117 117 88
Width: 640
GlyphClass: 1
Flags: W
LayerCount: 3
Fore
SplineSet
128 0 m 1,0,-1
 128 64 l 1,1,-1
 64 64 l 1,2,-1
 64 384 l 1,3,-1
 192 384 l 1,4,-1
 192 64 l 1,5,-1
 384 64 l 1,6,-1
 384 0 l 1,7,-1
 128 0 l 1,0,-1
448 0 m 1,8,-1
 448 64 l 1,9,-1
 384 64 l 1,10,-1
 384 128 l 1,11,-1
 448 128 l 1,12,-1
 448 384 l 1,13,-1
 576 384 l 1,14,-1
 576 0 l 1,15,-1
 448 0 l 1,8,-1
EndSplineSet
Validated: 5
EndChar

StartChar: v
Encoding: 118 118 89
Width: 640
GlyphClass: 1
Flags: W
LayerCount: 3
Fore
SplineSet
256 0 m 1,0,-1
 256 64 l 1,1,-1
 192 64 l 1,2,-1
 192 128 l 1,3,-1
 128 128 l 1,4,-1
 128 192 l 1,5,-1
 64 192 l 1,6,-1
 64 384 l 1,7,-1
 192 384 l 1,8,-1
 192 192 l 1,9,-1
 256 192 l 1,10,-1
 256 128 l 1,11,-1
 384 128 l 1,12,-1
 384 192 l 1,13,-1
 448 192 l 1,14,-1
 448 384 l 1,15,-1
 576 384 l 1,16,-1
 576 192 l 1,17,-1
 512 192 l 1,18,-1
 512 128 l 1,19,-1
 448 128 l 1,20,-1
 448 64 l 1,21,-1
 384 64 l 1,22,-1
 384 0 l 1,23,-1
 256 0 l 1,0,-1
EndSplineSet
Validated: 1
EndChar

StartChar: w
Encoding: 119 119 90
Width: 704
GlyphClass: 1
Flags: W
LayerCount: 3
Fore
SplineSet
320 128 m 1,0,-1
 320 320 l 1,1,-1
 384 320 l 1,2,-1
 384 128 l 1,3,-1
 320 128 l 1,0,-1
128 0 m 1,4,-1
 128 128 l 1,5,-1
 64 128 l 1,6,-1
 64 384 l 1,7,-1
 192 384 l 1,8,-1
 192 128 l 1,9,-1
 320 128 l 1,10,-1
 320 64 l 1,11,-1
 256 64 l 1,12,-1
 256 0 l 1,13,-1
 128 0 l 1,4,-1
448 0 m 1,14,-1
 448 64 l 1,15,-1
 384 64 l 1,16,-1
 384 128 l 1,17,-1
 512 128 l 1,18,-1
 512 384 l 1,19,-1
 640 384 l 1,20,-1
 640 128 l 1,21,-1
 576 128 l 1,22,-1
 576 0 l 1,23,-1
 448 0 l 1,14,-1
EndSplineSet
Validated: 5
EndChar

StartChar: x
Encoding: 120 120 91
Width: 640
GlyphClass: 1
Flags: W
LayerCount: 3
Fore
SplineSet
64 0 m 1,0,-1
 64 64 l 1,1,-1
 128 64 l 1,2,-1
 128 128 l 1,3,-1
 192 128 l 1,4,-1
 192 256 l 1,5,-1
 128 256 l 1,6,-1
 128 320 l 1,7,-1
 64 320 l 1,8,-1
 64 384 l 1,9,-1
 192 384 l 1,10,-1
 192 320 l 1,11,-1
 256 320 l 1,12,-1
 256 256 l 1,13,-1
 384 256 l 1,14,-1
 384 320 l 1,15,-1
 448 320 l 1,16,-1
 448 384 l 1,17,-1
 576 384 l 1,18,-1
 576 320 l 1,19,-1
 512 320 l 1,20,-1
 512 256 l 1,21,-1
 448 256 l 1,22,-1
 448 128 l 1,23,-1
 512 128 l 1,24,-1
 512 64 l 1,25,-1
 576 64 l 1,26,-1
 576 0 l 1,27,-1
 448 0 l 1,28,-1
 448 64 l 1,29,-1
 384 64 l 1,30,-1
 384 128 l 1,31,-1
 256 128 l 1,32,-1
 256 64 l 1,33,-1
 192 64 l 1,34,-1
 192 0 l 1,35,-1
 64 0 l 1,0,-1
EndSplineSet
Validated: 1
EndChar

StartChar: y
Encoding: 121 121 92
Width: 640
GlyphClass: 1
Flags: W
LayerCount: 3
Fore
SplineSet
64 -192 m 1,0,-1
 64 -128 l 1,1,-1
 128 -128 l 1,2,-1
 128 -64 l 1,3,-1
 192 -64 l 1,4,-1
 192 0 l 1,5,-1
 256 0 l 1,6,-1
 256 64 l 1,7,-1
 192 64 l 1,8,-1
 192 128 l 1,9,-1
 128 128 l 1,10,-1
 128 192 l 1,11,-1
 64 192 l 1,12,-1
 64 384 l 1,13,-1
 192 384 l 1,14,-1
 192 192 l 1,15,-1
 256 192 l 1,16,-1
 256 128 l 1,17,-1
 384 128 l 1,18,-1
 384 192 l 1,19,-1
 448 192 l 1,20,-1
 448 384 l 1,21,-1
 576 384 l 1,22,-1
 576 192 l 1,23,-1
 512 192 l 1,24,-1
 512 128 l 1,25,-1
 448 128 l 1,26,-1
 448 64 l 1,27,-1
 384 64 l 1,28,-1
 384 0 l 1,29,-1
 320 0 l 1,30,-1
 320 -64 l 1,31,-1
 256 -64 l 1,32,-1
 256 -128 l 1,33,-1
 192 -128 l 1,34,-1
 192 -192 l 1,35,-1
 64 -192 l 1,0,-1
EndSplineSet
Validated: 1
EndChar

StartChar: z
Encoding: 122 122 93
Width: 576
GlyphClass: 1
Flags: W
LayerCount: 3
Fore
SplineSet
64 0 m 1,0,-1
 64 64 l 1,1,-1
 128 64 l 1,2,-1
 128 128 l 1,3,-1
 192 128 l 1,4,-1
 192 192 l 1,5,-1
 256 192 l 1,6,-1
 256 256 l 1,7,-1
 320 256 l 1,8,-1
 320 320 l 1,9,-1
 64 320 l 1,10,-1
 64 384 l 1,11,-1
 512 384 l 1,12,-1
 512 256 l 1,13,-1
 384 256 l 1,14,-1
 384 192 l 1,15,-1
 320 192 l 1,16,-1
 320 128 l 1,17,-1
 256 128 l 1,18,-1
 256 64 l 1,19,-1
 512 64 l 1,20,-1
 512 0 l 1,21,-1
 64 0 l 1,0,-1
EndSplineSet
Validated: 1
EndChar

StartChar: braceleft
Encoding: 123 123 94
Width: 704
GlyphClass: 1
Flags: W
LayerCount: 3
Fore
SplineSet
255 63 m 1,0,-1
 255 -1 l 1,1,-1
 191 -1 l 1,2,-1
 191 63 l 1,3,-1
 255 63 l 1,0,-1
191 267 m 1,4,-1
 191 63 l 1,5,-1
 127 63 l 1,6,-1
 127 267 l 1,7,-1
 191 267 l 1,4,-1
127 331 m 1,8,-1
 127 267 l 1,9,-1
 63 267 l 1,10,-1
 63 331 l 1,11,-1
 127 331 l 1,8,-1
191 515 m 1,12,-1
 191 331 l 1,13,-1
 127 331 l 1,14,-1
 127 515 l 1,15,-1
 191 515 l 1,12,-1
256 579 m 1,16,-1
 256 515 l 1,17,-1
 192 515 l 1,18,-1
 192 579 l 1,19,-1
 256 579 l 1,16,-1
EndSplineSet
Validated: 5
EndChar

StartChar: bar
Encoding: 124 124 95
Width: 512
GlyphClass: 1
Flags: W
LayerCount: 3
Fore
SplineSet
224 -128 m 5,0,-1
 224 512 l 5,1,-1
 288 512 l 5,2,-1
 288 -128 l 5,3,-1
 224 -128 l 5,0,-1
EndSplineSet
Validated: 1
EndChar

StartChar: braceright
Encoding: 125 125 96
Width: 704
GlyphClass: 1
Flags: W
LayerCount: 3
Fore
SplineSet
319 63 m 1,0,-1
 319 -1 l 1,1,-1
 255 -1 l 1,2,-1
 255 63 l 1,3,-1
 319 63 l 1,0,-1
384 267 m 1,4,-1
 384 63 l 1,5,-1
 320 63 l 1,6,-1
 320 267 l 1,7,-1
 384 267 l 1,4,-1
448 331 m 1,8,-1
 448 267 l 1,9,-1
 384 267 l 1,10,-1
 384 331 l 1,11,-1
 448 331 l 1,8,-1
384 515 m 1,12,-1
 384 331 l 1,13,-1
 320 331 l 1,14,-1
 320 515 l 1,15,-1
 384 515 l 1,12,-1
320 579 m 1,16,-1
 320 515 l 1,17,-1
 256 515 l 1,18,-1
 256 579 l 1,19,-1
 320 579 l 1,16,-1
EndSplineSet
Validated: 5
EndChar

StartChar: asciitilde
Encoding: 126 126 97
Width: 640
GlyphClass: 1
Flags: W
LayerCount: 3
Fore
SplineSet
49 236 m 1048,0,-1
507 238 m 1,1,-1
 507 302 l 1,2,-1
 586 302 l 1,3,-1
 586 238 l 1,4,-1
 507 238 l 1,1,-1
64 238 m 1,5,-1
 64 302 l 1,6,-1
 127 302 l 1,7,-1
 127 238 l 1,8,-1
 64 238 l 1,5,-1
378 174 m 1,9,-1
 378 238 l 5,10,-1
 506 238 l 1,11,-1
 506 174 l 1,12,-1
 378 174 l 1,9,-1
215 238 m 1,13,-1
 215 302 l 1,14,-1
 378 302 l 1,15,-1
 378 238 l 1,16,-1
 215 238 l 1,13,-1
127 302 m 1,17,-1
 127 366 l 1,18,-1
 215 366 l 1,19,-1
 215 302 l 1,20,-1
 127 302 l 1,17,-1
EndSplineSet
Validated: 5
EndChar

StartChar: ccedilla
Encoding: 231 231 98
Width: 640
Flags: W
LayerCount: 3
Fore
SplineSet
340 -173 m 5,0,-1
 276 -173 l 5,1,-1
 276 -105 l 5,2,-1
 340 -105 l 5,3,-1
 340 -173 l 5,0,-1
379 -144 m 5,4,-1
 315 -144 l 5,5,-1
 315 -20 l 5,6,-1
 379 -20 l 5,7,-1
 379 -144 l 5,4,-1
128 0 m 1,8,-1
 128 64 l 1,9,-1
 64 64 l 1,10,-1
 64 320 l 1,11,-1
 128 320 l 1,12,-1
 128 384 l 1,13,-1
 512 384 l 1,14,-1
 512 320 l 1,15,-1
 576 320 l 1,16,-1
 576 256 l 1,17,-1
 448 256 l 1,18,-1
 448 320 l 1,19,-1
 192 320 l 1,20,-1
 192 64 l 1,21,-1
 448 64 l 1,22,-1
 448 128 l 1,23,-1
 576 128 l 1,24,-1
 576 64 l 1,25,-1
 512 64 l 1,26,-1
 512 0 l 1,27,-1
 128 0 l 1,8,-1
EndSplineSet
Validated: 5
EndChar

StartChar: dotlessi
Encoding: 305 305 99
Width: 640
Flags: W
LayerCount: 3
Fore
SplineSet
64 0 m 1,0,-1
 64 64 l 1,1,-1
 256 64 l 1,2,-1
 256 320 l 1,3,-1
 128 320 l 1,4,-1
 128 384 l 1,5,-1
 384 384 l 1,6,-1
 384 64 l 1,7,-1
 576 64 l 1,8,-1
 576 0 l 1,9,-1
 64 0 l 1,0,-1
EndSplineSet
Validated: 1
EndChar

StartChar: Idotaccent
Encoding: 304 304 100
Width: 576
Flags: W
LayerCount: 3
Fore
SplineSet
256 547 m 1,0,-1
 256 611 l 1,1,-1
 384 611 l 1,2,-1
 384 547 l 1,3,-1
 256 547 l 1,0,-1
128 0 m 1,4,-1
 128 64 l 1,5,-1
 256 64 l 1,6,-1
 256 448 l 1,7,-1
 128 448 l 1,8,-1
 128 512 l 1,9,-1
 512 512 l 1,10,-1
 512 448 l 1,11,-1
 384 448 l 1,12,-1
 384 64 l 1,13,-1
 512 64 l 1,14,-1
 512 0 l 1,15,-1
 128 0 l 1,4,-1
EndSplineSet
Validated: 1
EndChar

StartChar: gbreve
Encoding: 287 287 101
Width: 640
Flags: W
LayerCount: 3
Fore
SplineSet
449 578 m 5,0,-1
 513 578 l 5,1,-1
 513 514 l 5,2,-1
 449 514 l 5,3,-1
 449 578 l 5,0,-1
192 515 m 5,4,-1
 449 515 l 5,5,-1
 449 451 l 5,6,-1
 192 451 l 5,7,-1
 192 515 l 5,4,-1
127 579 m 5,8,-1
 191 579 l 5,9,-1
 191 515 l 5,10,-1
 127 515 l 5,11,-1
 127 579 l 5,8,-1
128 64 m 1,12,-1
 128 128 l 1,13,-1
 64 128 l 1,14,-1
 64 320 l 1,15,-1
 128 320 l 1,16,-1
 128 384 l 1,17,-1
 384 384 l 1,18,-1
 384 320 l 1,19,-1
 192 320 l 1,20,-1
 192 128 l 1,21,-1
 384 128 l 1,22,-1
 384 64 l 1,23,-1
 128 64 l 1,12,-1
128 -128 m 1,24,-1
 128 -64 l 1,25,-1
 64 -64 l 1,26,-1
 64 0 l 1,27,-1
 192 0 l 1,28,-1
 192 -64 l 1,29,-1
 448 -64 l 1,30,-1
 448 128 l 1,31,-1
 384 128 l 1,32,-1
 384 192 l 1,33,-1
 448 192 l 1,34,-1
 448 256 l 1,35,-1
 384 256 l 1,36,-1
 384 320 l 1,37,-1
 448 320 l 1,38,-1
 448 384 l 1,39,-1
 576 384 l 1,40,-1
 576 0 l 1,41,-1
 512 0 l 1,42,-1
 512 -128 l 1,43,-1
 128 -128 l 1,24,-1
EndSplineSet
Validated: 5
EndChar

StartChar: Gbreve
Encoding: 286 286 102
Width: 640
Flags: W
LayerCount: 3
Fore
SplineSet
449 705 m 5,0,-1
 513 705 l 5,1,-1
 513 641 l 5,2,-1
 449 641 l 5,3,-1
 449 705 l 5,0,-1
192 642 m 5,4,-1
 449 642 l 5,5,-1
 449 578 l 5,6,-1
 192 578 l 5,7,-1
 192 642 l 5,4,-1
127 706 m 5,8,-1
 191 706 l 5,9,-1
 191 642 l 5,10,-1
 127 642 l 5,11,-1
 127 706 l 5,8,-1
512 0 m 1,12,-1
 512 64 l 1,13,-1
 448 64 l 1,14,-1
 448 192 l 1,15,-1
 384 192 l 1,16,-1
 384 256 l 1,17,-1
 576 256 l 1,18,-1
 576 0 l 1,19,-1
 512 0 l 1,12,-1
192 0 m 1,20,-1
 192 64 l 1,21,-1
 128 64 l 1,22,-1
 128 128 l 1,23,-1
 64 128 l 1,24,-1
 64 384 l 1,25,-1
 128 384 l 1,26,-1
 128 448 l 1,27,-1
 192 448 l 1,28,-1
 192 512 l 1,29,-1
 512 512 l 1,30,-1
 512 448 l 1,31,-1
 576 448 l 1,32,-1
 576 384 l 1,33,-1
 448 384 l 1,34,-1
 448 448 l 1,35,-1
 256 448 l 1,36,-1
 256 384 l 1,37,-1
 192 384 l 1,38,-1
 192 128 l 1,39,-1
 256 128 l 1,40,-1
 256 64 l 1,41,-1
 448 64 l 1,42,-1
 448 0 l 1,43,-1
 192 0 l 1,20,-1
EndSplineSet
Validated: 5
EndChar

StartChar: scedilla
Encoding: 351 351 103
Width: 640
Flags: W
LayerCount: 3
Fore
SplineSet
340 -173 m 1,0,-1
 276 -173 l 1,1,-1
 276 -105 l 1,2,-1
 340 -105 l 1,3,-1
 340 -173 l 1,0,-1
379 -144 m 1,4,-1
 315 -144 l 1,5,-1
 315 -20 l 1,6,-1
 379 -20 l 1,7,-1
 379 -144 l 1,4,-1
128 0 m 1,8,-1
 128 64 l 1,9,-1
 64 64 l 1,10,-1
 64 128 l 1,11,-1
 192 128 l 1,12,-1
 192 64 l 1,13,-1
 448 64 l 1,14,-1
 448 128 l 1,15,-1
 320 128 l 1,16,-1
 320 192 l 1,17,-1
 128 192 l 1,18,-1
 128 256 l 1,19,-1
 64 256 l 1,20,-1
 64 320 l 1,21,-1
 128 320 l 1,22,-1
 128 384 l 1,23,-1
 512 384 l 1,24,-1
 512 320 l 1,25,-1
 576 320 l 1,26,-1
 576 256 l 1,27,-1
 448 256 l 1,28,-1
 448 320 l 1,29,-1
 192 320 l 1,30,-1
 192 256 l 1,31,-1
 384 256 l 1,32,-1
 384 192 l 1,33,-1
 512 192 l 1,34,-1
 512 128 l 1,35,-1
 576 128 l 1,36,-1
 576 64 l 1,37,-1
 512 64 l 1,38,-1
 512 0 l 1,39,-1
 128 0 l 1,8,-1
EndSplineSet
Validated: 5
EndChar

StartChar: Scedilla
Encoding: 350 350 104
Width: 640
Flags: W
LayerCount: 3
Fore
SplineSet
340 -173 m 5,0,-1
 276 -173 l 5,1,-1
 276 -105 l 5,2,-1
 340 -105 l 5,3,-1
 340 -173 l 5,0,-1
379 -144 m 5,4,-1
 315 -144 l 5,5,-1
 315 -20 l 5,6,-1
 379 -20 l 5,7,-1
 379 -144 l 5,4,-1
128 0 m 1,8,-1
 128 64 l 1,9,-1
 64 64 l 1,10,-1
 64 128 l 1,11,-1
 192 128 l 1,12,-1
 192 64 l 1,13,-1
 448 64 l 1,14,-1
 448 192 l 1,15,-1
 256 192 l 1,16,-1
 256 256 l 1,17,-1
 128 256 l 1,18,-1
 128 320 l 1,19,-1
 64 320 l 1,20,-1
 64 448 l 1,21,-1
 128 448 l 1,22,-1
 128 512 l 1,23,-1
 512 512 l 1,24,-1
 512 448 l 1,25,-1
 576 448 l 1,26,-1
 576 384 l 1,27,-1
 448 384 l 1,28,-1
 448 448 l 1,29,-1
 192 448 l 1,30,-1
 192 320 l 1,31,-1
 384 320 l 1,32,-1
 384 256 l 1,33,-1
 512 256 l 1,34,-1
 512 192 l 1,35,-1
 576 192 l 1,36,-1
 576 64 l 1,37,-1
 512 64 l 1,38,-1
 512 0 l 1,39,-1
 128 0 l 1,8,-1
EndSplineSet
Validated: 5
EndChar

StartChar: odieresis
Encoding: 246 246 105
Width: 640
Flags: W
LayerCount: 3
Fore
SplineSet
381 579 m 5,0,-1
 513 579 l 5,1,-1
 513 447 l 5,2,-1
 381 447 l 5,3,-1
 381 579 l 5,0,-1
127 579 m 5,4,-1
 259 579 l 5,5,-1
 259 447 l 5,6,-1
 127 447 l 5,7,-1
 127 579 l 5,4,-1
448 64 m 1,8,-1
 448 320 l 1,9,-1
 192 320 l 1,10,-1
 192 64 l 1,11,-1
 448 64 l 1,8,-1
128 0 m 1,12,-1
 128 64 l 1,13,-1
 64 64 l 1,14,-1
 64 320 l 1,15,-1
 128 320 l 1,16,-1
 128 384 l 1,17,-1
 512 384 l 1,18,-1
 512 320 l 1,19,-1
 576 320 l 1,20,-1
 576 64 l 1,21,-1
 512 64 l 1,22,-1
 512 0 l 1,23,-1
 128 0 l 1,12,-1
EndSplineSet
Validated: 1
EndChar

StartChar: Odieresis
Encoding: 214 214 106
Width: 640
Flags: W
LayerCount: 3
Fore
SplineSet
381 711 m 5,0,-1
 513 711 l 5,1,-1
 513 579 l 5,2,-1
 381 579 l 5,3,-1
 381 711 l 5,0,-1
127 711 m 5,4,-1
 259 711 l 5,5,-1
 259 579 l 5,6,-1
 127 579 l 5,7,-1
 127 711 l 5,4,-1
384 64 m 1,8,-1
 384 128 l 1,9,-1
 448 128 l 1,10,-1
 448 384 l 1,11,-1
 384 384 l 1,12,-1
 384 448 l 1,13,-1
 256 448 l 1,14,-1
 256 384 l 1,15,-1
 192 384 l 1,16,-1
 192 128 l 1,17,-1
 256 128 l 1,18,-1
 256 64 l 1,19,-1
 384 64 l 1,8,-1
192 0 m 1,20,-1
 192 64 l 1,21,-1
 128 64 l 1,22,-1
 128 128 l 1,23,-1
 64 128 l 1,24,-1
 64 384 l 1,25,-1
 128 384 l 1,26,-1
 128 448 l 1,27,-1
 192 448 l 1,28,-1
 192 512 l 1,29,-1
 448 512 l 1,30,-1
 448 448 l 1,31,-1
 512 448 l 1,32,-1
 512 384 l 1,33,-1
 576 384 l 1,34,-1
 576 128 l 1,35,-1
 512 128 l 1,36,-1
 512 64 l 1,37,-1
 448 64 l 1,38,-1
 448 0 l 1,39,-1
 192 0 l 1,20,-1
EndSplineSet
Validated: 1
EndChar

StartChar: Udieresis
Encoding: 220 220 107
Width: 640
Flags: W
LayerCount: 3
Fore
SplineSet
381 711 m 5,0,-1
 513 711 l 5,1,-1
 513 579 l 5,2,-1
 381 579 l 5,3,-1
 381 711 l 5,0,-1
127 711 m 5,4,-1
 259 711 l 5,5,-1
 259 579 l 5,6,-1
 127 579 l 5,7,-1
 127 711 l 5,4,-1
128 0 m 1,8,-1
 128 64 l 1,9,-1
 64 64 l 1,10,-1
 64 512 l 1,11,-1
 192 512 l 1,12,-1
 192 64 l 1,13,-1
 448 64 l 1,14,-1
 448 512 l 1,15,-1
 576 512 l 1,16,-1
 576 64 l 1,17,-1
 512 64 l 1,18,-1
 512 0 l 1,19,-1
 128 0 l 1,8,-1
EndSplineSet
Validated: 1
EndChar

StartChar: udieresis
Encoding: 252 252 108
Width: 640
Flags: W
LayerCount: 3
Fore
SplineSet
381 579 m 5,0,-1
 513 579 l 5,1,-1
 513 447 l 5,2,-1
 381 447 l 5,3,-1
 381 579 l 5,0,-1
127 579 m 5,4,-1
 259 579 l 5,5,-1
 259 447 l 5,6,-1
 127 447 l 5,7,-1
 127 579 l 5,4,-1
128 0 m 1,8,-1
 128 64 l 1,9,-1
 64 64 l 1,10,-1
 64 384 l 1,11,-1
 192 384 l 1,12,-1
 192 64 l 1,13,-1
 384 64 l 1,14,-1
 384 0 l 1,15,-1
 128 0 l 1,8,-1
448 0 m 1,16,-1
 448 64 l 1,17,-1
 384 64 l 1,18,-1
 384 128 l 1,19,-1
 448 128 l 1,20,-1
 448 384 l 1,21,-1
 576 384 l 1,22,-1
 576 0 l 1,23,-1
 448 0 l 1,16,-1
EndSplineSet
Validated: 5
EndChar

StartChar: sterling
Encoding: 163 163 109
Width: 576
Flags: W
LayerCount: 3
Fore
SplineSet
64 0 m 5,0,-1
 64 64 l 5,1,-1
 128 64 l 5,2,-1
 128 192 l 5,3,-1
 64 192 l 5,4,-1
 64 256 l 5,5,-1
 128 256 l 5,6,-1
 128 512 l 5,7,-1
 448 512 l 5,8,-1
 448 448 l 5,9,-1
 512 448 l 5,10,-1
 512 384 l 5,11,-1
 384 384 l 5,12,-1
 384 448 l 5,13,-1
 192 448 l 5,14,-1
 192 256 l 5,15,-1
 448 256 l 5,16,-1
 448 192 l 5,17,-1
 192 192 l 5,18,-1
 192 64 l 5,19,-1
 512 64 l 5,20,-1
 512 0 l 5,21,-1
 64 0 l 5,0,-1
EndSplineSet
Validated: 1
EndChar

StartChar: arrowleft
Encoding: 8592 8592 110
Width: 640
Flags: W
LayerCount: 3
Fore
SplineSet
256 0 m 1,0,-1
 256 64 l 1,1,-1
 192 64 l 1,2,-1
 192 128 l 1,3,-1
 128 128 l 1,4,-1
 128 192 l 1,5,-1
 64 192 l 1,6,-1
 64 256 l 1,7,-1
 128 256 l 1,8,-1
 128 320 l 1,9,-1
 192 320 l 1,10,-1
 192 384 l 1,11,-1
 256 384 l 1,12,-1
 256 448 l 1,13,-1
 320 448 l 1,14,-1
 320 320 l 1,15,-1
 256 320 l 1,16,-1
 256 256 l 1,17,-1
 576 256 l 1,18,-1
 576 192 l 1,19,-1
 256 192 l 1,20,-1
 256 128 l 1,21,-1
 320 128 l 1,22,-1
 320 0 l 1,23,-1
 256 0 l 1,0,-1
EndSplineSet
Validated: 1
EndChar

StartChar: arrowright
Encoding: 8594 8594 111
Width: 640
Flags: W
LayerCount: 3
Fore
SplineSet
320 0 m 1,0,-1
 320 128 l 1,1,-1
 384 128 l 1,2,-1
 384 192 l 1,3,-1
 64 192 l 1,4,-1
 64 256 l 1,5,-1
 384 256 l 1,6,-1
 384 320 l 1,7,-1
 320 320 l 1,8,-1
 320 448 l 1,9,-1
 384 448 l 1,10,-1
 384 384 l 1,11,-1
 448 384 l 1,12,-1
 448 320 l 1,13,-1
 512 320 l 1,14,-1
 512 256 l 1,15,-1
 576 256 l 1,16,-1
 576 192 l 1,17,-1
 512 192 l 1,18,-1
 512 128 l 1,19,-1
 448 128 l 1,20,-1
 448 64 l 1,21,-1
 384 64 l 1,22,-1
 384 0 l 1,23,-1
 320 0 l 1,0,-1
EndSplineSet
Validated: 1
EndChar

StartChar: arrowup
Encoding: 8593 8593 112
Width: 640
Flags: W
LayerCount: 3
Fore
SplineSet
320 -64 m 1,0,-1
 320 384 l 1,1,-1
 256 384 l 1,2,-1
 256 320 l 1,3,-1
 128 320 l 1,4,-1
 128 384 l 1,5,-1
 192 384 l 1,6,-1
 192 448 l 1,7,-1
 256 448 l 1,8,-1
 256 512 l 1,9,-1
 320 512 l 1,10,-1
 320 576 l 1,11,-1
 384 576 l 1,12,-1
 384 512 l 1,13,-1
 448 512 l 1,14,-1
 448 448 l 1,15,-1
 512 448 l 1,16,-1
 512 384 l 1,17,-1
 576 384 l 1,18,-1
 576 320 l 1,19,-1
 448 320 l 1,20,-1
 448 384 l 1,21,-1
 384 384 l 1,22,-1
 384 -64 l 1,23,-1
 320 -64 l 1,0,-1
EndSplineSet
Validated: 1
EndChar

StartChar: Ccedilla
Encoding: 199 199 113
Width: 640
Flags: W
LayerCount: 3
Fore
SplineSet
340 -173 m 5,0,-1
 276 -173 l 5,1,-1
 276 -105 l 5,2,-1
 340 -105 l 5,3,-1
 340 -173 l 5,0,-1
379 -144 m 5,4,-1
 315 -144 l 5,5,-1
 315 -20 l 5,6,-1
 379 -20 l 5,7,-1
 379 -144 l 5,4,-1
192 0 m 1,8,-1
 192 64 l 1,9,-1
 128 64 l 1,10,-1
 128 128 l 1,11,-1
 64 128 l 1,12,-1
 64 384 l 1,13,-1
 128 384 l 1,14,-1
 128 448 l 1,15,-1
 192 448 l 1,16,-1
 192 512 l 1,17,-1
 512 512 l 1,18,-1
 512 448 l 1,19,-1
 576 448 l 1,20,-1
 576 384 l 1,21,-1
 448 384 l 1,22,-1
 448 448 l 1,23,-1
 256 448 l 1,24,-1
 256 384 l 1,25,-1
 192 384 l 1,26,-1
 192 128 l 1,27,-1
 256 128 l 1,28,-1
 256 64 l 1,29,-1
 448 64 l 1,30,-1
 448 128 l 1,31,-1
 576 128 l 1,32,-1
 576 64 l 1,33,-1
 512 64 l 1,34,-1
 512 0 l 1,35,-1
 192 0 l 1,8,-1
EndSplineSet
EndChar
